<svg width="138" height="138" viewBox="0 0 138 138" fill="none" xmlns="http://www.w3.org/2000/svg">
<g clip-path="url(#clip0_2_14)">
<path d="M68.9987 1.01822C106.442 1.01822 136.983 31.563 136.983 69.0052C136.983 106.447 106.442 136.983 68.9987 136.983C31.56 136.983 1.01898 106.447 1.01898 69.0052C1.01898 31.563 31.56 1.01822 68.9987 1.01822Z" fill="white"/>
<path d="M114.991 89.4949L110.397 97.7813L112.236 98.8015L115.652 92.637L126.233 98.5333L127.406 96.4114L114.991 89.4949ZM118.851 75.8199L118.482 78.3106L121.74 80.4133L120.164 85.73L116.322 85.9743L115.45 88.3884L130.687 87.349L131.406 84.8727L118.851 75.8199ZM128.767 85.4043L128.762 85.4379L128.752 85.4618L122.118 85.6199L123.325 81.5485L128.767 85.4043ZM119.019 63.5387L119.143 65.8474L129.428 65.287V65.3493L119.158 72.1365L119.028 74.7038L133.02 75.8821L133.255 73.2621L122.76 72.5628V72.4191L133.37 65.56L133.188 62.8203L119.019 63.5387ZM129.432 52.6371C130.228 55.4343 127.943 57.5658 125.361 58.2268C122.789 58.8878 120.006 58.4567 119.249 55.6499C118.473 52.7712 120.715 50.7499 123.268 49.9739C125.802 49.198 128.623 49.7775 129.432 52.6371ZM131.339 52.0144C130.218 48.0388 126.338 46.3863 122.549 47.6556C118.794 48.9154 116.26 52.2203 117.352 56.2199C118.425 60.1284 122.209 61.4839 126.027 60.4541C129.887 59.4099 132.46 55.966 131.339 52.0144ZM113.85 46.2857L114.88 48.4795L127.689 42.4299L126.664 40.2362L113.85 46.2857ZM117.606 30.1248L119.891 33.4633L110.033 40.0685L111.35 42.0994L121.222 35.5038L123.713 39.1441L125.519 38.1047L119.268 28.8316L117.606 30.1248ZM100.103 29.4782L102.062 31.1163L105.569 29.277L109.472 33.2382L107.772 37.0892L109.381 39.0914L115.661 24.6117L113.769 22.8012L100.103 29.4782ZM113.051 25.3973L113.079 25.426L113.094 25.4356L110.263 31.4564L107.307 28.3717L113.051 25.3973ZM89.8191 23.1891L91.9554 24.195L96.7262 15.2188L96.7741 15.2524L97.5309 27.5718L99.538 29.0519L107.116 17.1683L105.181 15.6499L99.5475 24.4441L98.8242 11.8708L96.4628 10.7116L89.8191 23.1891ZM77.7291 19.41L79.9469 19.9129L81.518 14.3567L85.1009 15.3482C87.2468 15.9373 87.2947 17.1875 86.5906 19.6351C86.399 20.2913 86.1978 21.072 86.3846 21.7522L88.8371 22.7581C88.4826 22.0731 88.7317 20.2434 89.1724 18.6915C89.7759 16.5792 88.9185 15.6499 88.1377 15.3099L88.1473 15.2715C88.6168 15.2524 90.4513 15.1039 91.1746 12.5461C91.826 10.2853 90.8633 8.29753 87.9414 7.48805L81.5275 5.70623L77.7291 19.41ZM83.319 8.27837L87.151 9.32735C88.3677 9.64827 89.2394 10.5152 88.7509 12.206C88.3437 13.6095 87.4767 14.0932 86.0014 13.6861L82.0257 12.5892L83.319 8.27837ZM66.257 18.8017L76.3783 19.1657L76.4118 17.0773L68.7239 16.7468L68.8532 12.4982L75.8466 12.6611L75.8753 10.6829L68.8915 10.5152L68.949 6.74084L76.4406 7.10965L76.4789 5.00691L66.5684 4.5902L66.257 18.8017ZM53.1228 8.84837L57.2614 8.15862L59.0816 19.6207L61.4814 19.2375L59.6612 7.7467L63.977 6.98033L63.7519 4.777L52.5385 6.68336L53.1228 8.84837ZM45.4732 24.5303L47.4994 23.5484L43.3895 14.1555L43.447 14.1268L52.8259 21.3307L55.264 20.6074L50.9721 7.16714L48.6633 7.84249L51.7721 17.858L51.6571 17.8676L42.1346 10.429L39.7875 11.6169L45.4732 24.5303ZM41.4975 26.9204L43.5572 25.6367L36.1135 13.6334L34.0586 14.9219L41.4975 26.9204ZM27.5011 40.4996L33.9484 32.9029L32.4875 31.3941L27.5777 37.3L24.3924 34.4884L28.7657 29.1429L27.3861 27.7682L22.8404 33.1137L20.0622 30.599L24.9576 25.0141L23.4583 23.4286L16.9583 31.1307L27.5011 40.4996ZM11.7085 44.5183L13.773 40.5954L23.8799 46.8845L25.0247 44.7338L14.9657 38.4639L17.126 34.5171L15.3728 33.4346L9.75894 43.637L11.7085 44.5183ZM21.3699 53.1208L22.2034 50.8409L8.92548 45.8978L8.09681 48.1873L21.3699 53.1208ZM18.6779 68.7597L18.7689 66.5563L8.25967 65.6079L19.1378 62.8777L19.3342 60.89L9.28472 54.9027L20.1389 57.0054L20.6897 54.8452L6.71728 52.0862L6.05626 55.3385L16.2302 61.3785L16.2254 61.412L4.77733 63.9411L4.60968 67.658L18.6779 68.7597ZM6.97115 77.1323C6.63585 74.153 8.99254 72.8119 11.6318 72.5293C14.3047 72.2323 17.0876 73.1807 17.466 76.1216C17.8445 79.1057 15.301 80.49 12.676 80.8923C10.0511 81.3138 7.31124 80.0828 6.97115 77.1323ZM4.96893 77.4484C5.44793 81.5629 9.25119 83.9147 13.155 83.292C17.0733 82.6837 19.9856 79.9631 19.4204 75.8199C18.8599 71.6958 15.4734 69.9954 11.5552 70.2253C7.60823 70.4648 4.48993 73.3004 4.96893 77.4484ZM11.6558 86.1659C9.03565 87.6412 7.97227 90.7594 9.27036 93.5998C11.0714 97.5801 15.21 98.6195 18.8264 97.0053C22.4524 95.3959 24.56 91.8419 22.8069 88.0723C21.4849 85.208 18.6157 83.9147 15.4159 84.9206L16.1967 87.0808C18.1175 86.4389 20.158 87.0808 21.0394 89.0446C22.2465 91.7605 20.1006 93.7866 17.6768 94.8738C15.2435 95.9611 12.4126 95.6019 11.2055 92.8813C10.3816 91.0324 11.1289 89.538 12.4126 88.5177L11.6558 86.1659Z" fill="#231F20"/>
<path d="M100.592 125.316L108.816 119.683L107.643 117.916L101.42 122.241L99.0876 118.788L104.73 114.798L103.614 113.136L97.9715 117.126L95.8831 113.883L102.033 109.639L100.85 107.876L92.6977 113.442L100.592 125.316Z" fill="#231F20"/>
<path d="M90.015 130.082L92.5346 129.167L91.7011 113.926L89.4881 114.918L90.2976 126.878L90.2593 126.897L82.8875 117.327L80.526 118.021L90.015 130.082Z" fill="#231F20"/>
<path d="M72.0397 133.411L81.9406 132.224L81.5143 130.193L74.0994 131.036L73.5773 126.778L80.0773 126.002L79.6797 124.052L73.2611 124.823L72.8204 120.987L79.9959 120.259L79.6079 118.175L70.4207 119.281L72.0397 133.411Z" fill="#231F20"/>
<path d="M41.5678 127.312L50.9466 130.809L51.4879 128.797L44.5376 126.196L45.9458 122.197L52.1968 124.601L52.6998 122.695L46.5877 120.338L47.8618 116.65L54.5487 119.356L55.09 117.378L46.3913 113.944L41.5678 127.312Z" fill="#231F20"/>
<path d="M41.7602 119.098L36.8217 115.971L35.7823 117.47L38.9964 119.525C37.6456 121.417 35.5045 121.876 33.4544 120.425C31.0019 118.691 31.4713 115.755 32.9562 113.58C34.4459 111.411 36.884 110.084 39.3461 111.794C40.8022 112.8 41.6022 114.486 40.7687 116.105L42.8428 117.288C44.275 114.519 42.9721 111.918 40.4622 110.18C37.0086 107.77 33.1526 108.944 30.9396 112.177C28.7314 115.415 28.8991 119.644 32.3431 122.039C33.7514 123.016 35.0542 123.208 36.9559 122.758L36.6301 124.741L37.9187 125.498L41.7602 119.098Z" fill="#231F20"/>
<path d="M54.8631 131.86L57.191 132.353L59.0352 122.026L59.0926 122.036L64.673 133.282L67.274 133.417L67.935 119.267L65.7555 119.205L65.3196 129.589L65.2813 129.58L59.7393 118.42L57.2724 117.912L54.8631 131.86Z" fill="#231F20"/>
<path fill-rule="evenodd" clip-rule="evenodd" d="M0 69.0048C0 107.009 30.9968 138 68.9976 138C107.003 138 138 107.009 138 69.0048C138 31.0006 107.003 0 68.9976 0C30.9966 0 0 31.0006 0 69.0048ZM68.9976 135.964C32.121 135.964 2.03575 105.885 2.03575 69.0048C2.03575 32.1246 32.1212 2.03568 68.9976 2.03568C105.879 2.03568 135.964 32.1247 135.964 69.0048C135.964 105.885 105.879 135.964 68.9976 135.964Z" fill="#231F20"/>
<path fill-rule="evenodd" clip-rule="evenodd" d="M21.3217 69.0063C21.3217 95.2561 42.7335 116.682 68.9991 116.682C95.2595 116.682 116.686 95.2565 116.686 69.0063C116.686 42.7514 95.2595 21.3259 68.9991 21.3259C42.7335 21.3259 21.3217 42.7517 21.3217 69.0063ZM68.9991 114.646C43.8583 114.646 23.3575 94.1323 23.3575 69.0063C23.3575 43.8755 43.8583 23.3615 68.9991 23.3615C94.1353 23.3615 114.65 43.8758 114.65 69.0063C114.65 94.1319 94.1354 114.646 68.9991 114.646Z" fill="#231F20"/>
<path d="M59.1051 59.1084V35.3413H78.8926V59.1084H102.661V78.9049H78.8926V102.667H59.1051V78.9049H35.3323V59.1084H59.1051Z" fill="#ED1C24"/>
</g>
<defs>
<clipPath id="clip0_2_14">
<rect width="138" height="138" fill="white"/>
</clipPath>
</defs>
</svg>
