<svg width="819" height="819" viewBox="0 0 819 819" fill="none" xmlns="http://www.w3.org/2000/svg">
<g clip-path="url(#clip0_3_38)">
<path d="M682.444 531.133L655.182 580.311L666.098 586.365L686.367 549.78L749.163 584.774L756.128 572.181L682.444 531.133ZM705.356 449.974L703.167 464.756L722.498 477.236L713.146 508.789L690.347 510.239L685.173 524.566L775.601 518.397L779.865 503.701L705.356 449.974ZM764.202 506.856L764.173 507.055L764.116 507.197L724.744 508.135L731.908 483.973L764.202 506.856ZM706.351 377.089L707.09 390.79L768.125 387.464V387.834L707.176 428.114L706.408 443.351L789.445 450.344L790.838 434.795L728.553 430.644V429.792L791.521 389.085L790.44 372.825L706.351 377.089ZM768.153 312.389C772.872 328.991 759.312 341.641 743.989 345.563C728.724 349.486 712.207 346.928 707.716 330.27C703.111 313.185 716.415 301.189 731.567 296.584C746.605 291.979 763.349 295.419 768.153 312.389ZM779.467 308.694C772.815 285.1 749.789 275.293 727.303 282.826C705.015 290.302 689.977 309.916 696.459 333.653C702.826 356.849 725.284 364.893 747.941 358.782C770.854 352.585 786.119 332.146 779.467 308.694ZM675.678 274.696L681.79 287.715L757.805 251.812L751.722 238.793L675.678 274.696ZM697.965 178.784L711.525 198.598L653.021 237.798L660.839 249.851L719.428 210.707L734.21 232.312L744.928 226.143L707.83 171.109L697.965 178.784ZM594.091 174.947L605.718 184.669L626.527 173.753L649.695 197.262L639.603 220.117L649.155 231.999L686.424 146.065L675.195 135.32L594.091 174.947ZM670.931 150.727L671.101 150.898L671.186 150.955L654.386 186.687L636.846 168.38L670.931 150.727ZM533.057 137.622L545.735 143.592L574.049 90.3205L574.334 90.5195L578.825 163.633L590.736 172.417L635.709 101.89L624.224 92.8789L590.793 145.07L586.5 70.4503L572.486 63.571L533.057 137.622ZM461.305 115.194L474.467 118.179L483.791 85.2037L505.055 91.0881C517.791 94.5846 518.075 102.004 513.896 116.53C512.759 120.424 511.565 125.058 512.674 129.094L527.229 135.064C525.125 130.999 526.604 120.14 529.219 110.93C532.801 98.3937 527.712 92.8789 523.078 90.8607L523.135 90.6332C525.921 90.5195 536.809 89.6383 541.102 74.4584C544.968 61.0411 539.254 49.244 521.913 44.4399L483.848 33.8652L461.305 115.194ZM494.48 49.1303L517.222 55.3558C524.443 57.2604 529.617 62.4055 526.717 72.4402C524.301 80.7692 519.155 83.6403 510.4 81.224L486.805 74.7143L494.48 49.1303ZM393.221 111.584L453.289 113.744L453.488 101.35L407.861 99.3886L408.629 74.1742L450.133 75.1407L450.304 63.4005L408.856 62.4056L409.197 40.0054L453.658 42.1942L453.886 29.7149L395.069 27.2418L393.221 111.584ZM315.272 52.5131L339.834 48.4196L350.636 116.445L364.879 114.17L354.076 45.975L379.689 41.4267L378.353 28.3504L311.804 39.6642L315.272 52.5131ZM269.874 145.582L281.898 139.754L257.508 84.0098L257.849 83.8393L313.51 126.593L327.98 122.3L302.508 42.5353L288.806 46.5435L307.256 105.984L306.574 106.04L250.06 61.8939L236.13 68.9437L269.874 145.582ZM246.279 159.767L258.503 152.148L214.326 80.9113L202.131 88.5581L246.279 159.767ZM163.213 240.356L201.477 195.272L192.806 186.317L163.668 221.367L144.764 204.681L170.718 172.957L162.531 164.798L135.553 196.522L119.065 181.599L148.118 148.453L139.22 139.044L100.644 184.754L163.213 240.356ZM69.4872 264.206L81.7395 240.925L141.722 278.249L148.516 265.486L88.818 228.275L101.639 204.852L91.2343 198.427L57.9172 258.976L69.4872 264.206ZM126.826 315.261L131.772 301.73L52.9708 272.393L48.0528 285.981L126.826 315.261ZM110.849 408.074L111.39 394.997L49.0193 389.369L113.578 373.166L114.744 361.369L55.1028 325.835L119.52 338.315L122.789 325.494L39.8656 309.12L35.9426 328.422L96.3229 364.268L96.2945 364.467L28.3524 379.476L27.3575 401.535L110.849 408.074ZM41.3723 457.763C39.3823 440.082 53.3688 432.123 69.0324 430.445C84.895 428.683 101.411 434.311 103.657 451.765C105.903 469.475 90.8079 477.69 75.2296 480.078C59.6512 482.58 43.3906 475.274 41.3723 457.763ZM29.4895 459.64C32.3323 484.058 54.9038 498.015 78.0724 494.32C101.326 490.71 118.61 474.563 115.256 449.974C111.93 425.499 91.8313 415.408 68.5775 416.772C45.1532 418.193 26.6468 435.022 29.4895 459.64ZM69.1745 511.376C53.6246 520.131 47.3137 538.637 55.0176 555.494C65.7064 579.117 90.2678 585.285 111.731 575.705C133.25 566.154 145.759 545.062 135.354 522.69C127.508 505.691 110.48 498.015 91.4902 503.985L96.1239 516.805C107.523 512.996 119.634 516.805 124.864 528.46C132.028 544.578 119.292 556.603 104.908 563.056C90.4668 569.508 73.6661 567.376 66.5023 551.23C61.6128 540.257 66.0474 531.388 73.6661 525.333L69.1745 511.376Z" fill="white" fill-opacity="0.2"/>
<path d="M596.99 743.725L645.8 710.295L638.835 699.805L601.908 725.475L588.063 704.979L621.551 681.3L614.927 671.436L581.44 695.115L569.045 675.87L605.546 650.684L598.525 640.223L550.141 673.255L596.99 743.725Z" fill="white" fill-opacity="0.2"/>
<path d="M534.22 772.01L549.172 766.58L544.226 676.127L531.093 682.011L535.897 752.993L535.669 753.106L491.919 696.31L477.904 700.432L534.22 772.01Z" fill="white" fill-opacity="0.2"/>
<path d="M427.54 791.769L486.3 784.719L483.77 772.666L439.764 777.669L436.665 752.398L475.241 747.793L472.882 736.223L434.789 740.8L432.173 718.03L474.758 713.709L472.455 701.343L417.931 707.91L427.54 791.769Z" fill="white" fill-opacity="0.2"/>
<path d="M246.696 755.57L302.357 776.322L305.569 764.383L264.321 748.947L272.679 725.211L309.777 739.481L312.762 728.167L276.488 714.181L284.05 692.293L323.735 708.354L326.947 696.614L275.322 676.232L246.696 755.57Z" fill="white" fill-opacity="0.2"/>
<path d="M247.838 706.823L218.529 688.26L212.36 697.158L231.435 709.353C223.419 720.581 210.711 723.31 198.544 714.697C183.989 704.406 186.775 686.981 195.588 674.075C204.429 661.198 218.899 653.324 233.51 663.472C242.152 669.442 246.9 679.448 241.953 689.056L254.263 696.077C262.762 679.647 255.03 664.211 240.134 653.892C219.638 639.594 196.753 646.558 183.62 665.746C170.515 684.963 171.51 710.063 191.949 724.277C200.307 730.076 208.039 731.213 219.325 728.541L217.392 740.309L225.039 744.801L247.838 706.823Z" fill="white" fill-opacity="0.2"/>
<path d="M325.6 782.56L339.416 785.488L350.361 724.2L350.702 724.257L383.82 791.002L399.256 791.798L403.179 707.826L390.245 707.457L387.658 769.086L387.43 769.029L354.54 702.795L339.899 699.781L325.6 782.56Z" fill="white" fill-opacity="0.2"/>
<path fill-rule="evenodd" clip-rule="evenodd" d="M0 409.528C0 635.076 183.959 819 409.486 819C635.04 819 819 635.076 819 409.528C819 183.982 635.041 8.61804e-06 409.486 8.61804e-06C183.958 8.61804e-06 0 183.982 0 409.528ZM409.486 806.919C190.631 806.919 12.0817 628.403 12.0817 409.528C12.0817 190.653 190.633 12.0813 409.486 12.0813C628.368 12.0813 806.918 190.653 806.918 409.528C806.918 628.403 628.369 806.919 409.486 806.919Z" fill="white" fill-opacity="0.2"/>
<path fill-rule="evenodd" clip-rule="evenodd" d="M126.54 409.538C126.54 565.325 253.614 692.482 409.494 692.482C565.344 692.482 692.506 565.327 692.506 409.538C692.506 253.72 565.344 126.565 409.494 126.565C253.614 126.565 126.54 253.723 126.54 409.538ZM409.494 680.401C260.289 680.401 138.622 558.655 138.622 409.538C138.622 260.392 260.29 138.646 409.494 138.646C558.673 138.646 680.424 260.394 680.424 409.538C680.424 558.653 558.673 680.401 409.494 680.401Z" fill="white" fill-opacity="0.2"/>
<path d="M350.776 350.796V209.743H468.21V350.796H609.268V468.283H468.21V609.308H350.776V468.283H209.689V350.796H350.776Z" fill="white" fill-opacity="0.2"/>
</g>
<defs>
<clipPath id="clip0_3_38">
<rect width="819" height="819" fill="white"/>
</clipPath>
</defs>
</svg>
