<svg width="388" height="138" viewBox="0 0 388 138" fill="none" xmlns="http://www.w3.org/2000/svg">
<g clip-path="url(#clip0_3_76)">
<path d="M193.999 1.01822C231.442 1.01822 261.983 31.563 261.983 69.0052C261.983 106.447 231.442 136.983 193.999 136.983C156.56 136.983 126.019 106.447 126.019 69.0052C126.019 31.563 156.56 1.01822 193.999 1.01822Z" fill="white"/>
<path d="M239.991 89.4949L235.397 97.7813L237.236 98.8015L240.652 92.637L251.233 98.5333L252.406 96.4114L239.991 89.4949ZM243.851 75.8199L243.482 78.3106L246.74 80.4133L245.164 85.73L241.322 85.9743L240.45 88.3884L255.687 87.349L256.406 84.8727L243.851 75.8199ZM253.767 85.4043L253.762 85.4379L253.752 85.4618L247.118 85.6199L248.325 81.5485L253.767 85.4043ZM244.019 63.5387L244.143 65.8474L254.428 65.287V65.3493L244.158 72.1365L244.028 74.7038L258.02 75.8821L258.255 73.2621L247.76 72.5628V72.4191L258.37 65.56L258.188 62.8203L244.019 63.5387ZM254.432 52.6371C255.228 55.4343 252.943 57.5658 250.361 58.2268C247.789 58.8878 245.006 58.4567 244.249 55.6499C243.473 52.7712 245.715 50.7499 248.268 49.9739C250.802 49.198 253.623 49.7775 254.432 52.6371ZM256.339 52.0144C255.218 48.0388 251.338 46.3863 247.549 47.6556C243.794 48.9154 241.26 52.2203 242.352 56.2199C243.425 60.1284 247.209 61.4839 251.027 60.4541C254.887 59.4099 257.46 55.966 256.339 52.0144ZM238.85 46.2857L239.88 48.4795L252.689 42.4299L251.664 40.2362L238.85 46.2857ZM242.606 30.1248L244.891 33.4633L235.033 40.0685L236.35 42.0994L246.222 35.5038L248.713 39.1441L250.519 38.1047L244.268 28.8316L242.606 30.1248ZM225.103 29.4782L227.062 31.1163L230.569 29.277L234.472 33.2382L232.772 37.0892L234.381 39.0914L240.661 24.6117L238.769 22.8012L225.103 29.4782ZM238.051 25.3973L238.079 25.426L238.094 25.4356L235.263 31.4564L232.307 28.3717L238.051 25.3973ZM214.819 23.1891L216.955 24.195L221.726 15.2188L221.774 15.2524L222.531 27.5718L224.538 29.0519L232.116 17.1683L230.181 15.6499L224.548 24.4441L223.824 11.8708L221.463 10.7116L214.819 23.1891ZM202.729 19.41L204.947 19.9129L206.518 14.3567L210.101 15.3482C212.247 15.9373 212.295 17.1875 211.591 19.6351C211.399 20.2913 211.198 21.072 211.385 21.7522L213.837 22.7581C213.483 22.0731 213.732 20.2434 214.172 18.6915C214.776 16.5792 213.919 15.6499 213.138 15.3099L213.147 15.2715C213.617 15.2524 215.451 15.1039 216.175 12.5461C216.826 10.2853 215.863 8.29753 212.941 7.48805L206.528 5.70623L202.729 19.41ZM208.319 8.27837L212.151 9.32735C213.368 9.64827 214.239 10.5152 213.751 12.206C213.344 13.6095 212.477 14.0932 211.001 13.6861L207.026 12.5892L208.319 8.27837ZM191.257 18.8017L201.378 19.1657L201.412 17.0773L193.724 16.7468L193.853 12.4982L200.847 12.6611L200.875 10.6829L193.892 10.5152L193.949 6.74084L201.441 7.10965L201.479 5.00691L191.568 4.5902L191.257 18.8017ZM178.123 8.84837L182.261 8.15862L184.082 19.6207L186.481 19.2375L184.661 7.7467L188.977 6.98033L188.752 4.777L177.538 6.68336L178.123 8.84837ZM170.473 24.5303L172.499 23.5484L168.39 14.1555L168.447 14.1268L177.826 21.3307L180.264 20.6074L175.972 7.16714L173.663 7.84249L176.772 17.858L176.657 17.8676L167.135 10.429L164.787 11.6169L170.473 24.5303ZM166.497 26.9204L168.557 25.6367L161.114 13.6334L159.059 14.9219L166.497 26.9204ZM152.501 40.4996L158.948 32.9029L157.487 31.3941L152.578 37.3L149.392 34.4884L153.766 29.1429L152.386 27.7682L147.84 33.1137L145.062 30.599L149.958 25.0141L148.458 23.4286L141.958 31.1307L152.501 40.4996ZM136.708 44.5183L138.773 40.5954L148.88 46.8845L150.025 44.7338L139.966 38.4639L142.126 34.5171L140.373 33.4346L134.759 43.637L136.708 44.5183ZM146.37 53.1208L147.203 50.8409L133.925 45.8978L133.097 48.1873L146.37 53.1208ZM143.678 68.7597L143.769 66.5563L133.26 65.6079L144.138 62.8777L144.334 60.89L134.285 54.9027L145.139 57.0054L145.69 54.8452L131.717 52.0862L131.056 55.3385L141.23 61.3785L141.225 61.412L129.777 63.9411L129.61 67.658L143.678 68.7597ZM131.971 77.1323C131.636 74.153 133.993 72.8119 136.632 72.5293C139.305 72.2323 142.088 73.1807 142.466 76.1216C142.844 79.1057 140.301 80.49 137.676 80.8923C135.051 81.3138 132.311 80.0828 131.971 77.1323ZM129.969 77.4484C130.448 81.5629 134.251 83.9147 138.155 83.292C142.073 82.6837 144.986 79.9631 144.42 75.8199C143.86 71.6958 140.473 69.9954 136.555 70.2253C132.608 70.4648 129.49 73.3004 129.969 77.4484ZM136.656 86.1659C134.036 87.6412 132.972 90.7594 134.27 93.5998C136.071 97.5801 140.21 98.6195 143.826 97.0053C147.452 95.3959 149.56 91.8419 147.807 88.0723C146.485 85.208 143.616 83.9147 140.416 84.9206L141.197 87.0808C143.117 86.4389 145.158 87.0808 146.039 89.0446C147.246 91.7605 145.101 93.7866 142.677 94.8738C140.243 95.9611 137.413 95.6019 136.206 92.8813C135.382 91.0324 136.129 89.538 137.413 88.5177L136.656 86.1659Z" fill="#231F20"/>
<path d="M225.592 125.316L233.816 119.683L232.643 117.916L226.42 122.241L224.088 118.788L229.73 114.798L228.614 113.136L222.972 117.126L220.883 113.883L227.033 109.639L225.85 107.876L217.698 113.442L225.592 125.316Z" fill="#231F20"/>
<path d="M215.015 130.082L217.535 129.167L216.701 113.926L214.488 114.918L215.298 126.878L215.259 126.897L207.888 117.327L205.526 118.021L215.015 130.082Z" fill="#231F20"/>
<path d="M197.04 133.411L206.941 132.224L206.514 130.193L199.099 131.036L198.577 126.778L205.077 126.002L204.68 124.052L198.261 124.823L197.82 120.987L204.996 120.259L204.608 118.175L195.421 119.281L197.04 133.411Z" fill="#231F20"/>
<path d="M166.568 127.312L175.947 130.809L176.488 128.797L169.538 126.196L170.946 122.197L177.197 124.601L177.7 122.695L171.588 120.338L172.862 116.65L179.549 119.356L180.09 117.378L171.391 113.944L166.568 127.312Z" fill="#231F20"/>
<path d="M166.76 119.098L161.822 115.971L160.782 117.47L163.996 119.525C162.646 121.417 160.504 121.876 158.454 120.425C156.002 118.691 156.471 115.755 157.956 113.58C159.446 111.411 161.884 110.084 164.346 111.794C165.802 112.8 166.602 114.486 165.769 116.105L167.843 117.288C169.275 114.519 167.972 111.918 165.462 110.18C162.009 107.77 158.153 108.944 155.94 112.177C153.731 115.415 153.899 119.644 157.343 122.039C158.751 123.016 160.054 123.208 161.956 122.758L161.63 124.741L162.919 125.498L166.76 119.098Z" fill="#231F20"/>
<path d="M179.863 131.86L182.191 132.353L184.035 122.026L184.093 122.036L189.673 133.282L192.274 133.417L192.935 119.267L190.756 119.205L190.32 129.589L190.281 129.58L184.739 118.42L182.272 117.912L179.863 131.86Z" fill="#231F20"/>
<path fill-rule="evenodd" clip-rule="evenodd" d="M125 69.0048C125 107.009 155.997 138 193.998 138C232.003 138 263 107.009 263 69.0048C263 31.0006 232.003 0 193.998 0C155.997 0 125 31.0006 125 69.0048ZM193.998 135.964C157.121 135.964 127.036 105.885 127.036 69.0048C127.036 32.1246 157.121 2.03568 193.998 2.03568C230.879 2.03568 260.964 32.1247 260.964 69.0048C260.964 105.885 230.879 135.964 193.998 135.964Z" fill="#231F20"/>
<path fill-rule="evenodd" clip-rule="evenodd" d="M146.322 69.0063C146.322 95.2561 167.734 116.682 193.999 116.682C220.259 116.682 241.686 95.2565 241.686 69.0063C241.686 42.7514 220.26 21.3259 193.999 21.3259C167.733 21.3259 146.322 42.7517 146.322 69.0063ZM193.999 114.646C168.858 114.646 148.357 94.1323 148.357 69.0063C148.357 43.8755 168.858 23.3615 193.999 23.3615C219.135 23.3615 239.65 43.8758 239.65 69.0063C239.65 94.1319 219.135 114.646 193.999 114.646Z" fill="#231F20"/>
<path d="M184.105 59.1084V35.3413H203.893V59.1084H227.661V78.9049H203.893V102.667H184.105V78.9049H160.332V59.1084H184.105Z" fill="#ED1C24"/>
</g>
<defs>
<clipPath id="clip0_3_76">
<rect width="138" height="138" fill="white" transform="translate(125)"/>
</clipPath>
</defs>
</svg>
