<svg width="388" height="150" viewBox="0 0 388 150" fill="none" xmlns="http://www.w3.org/2000/svg">
<g clip-path="url(#clip0_8_2)">
<path d="M193.999 1.10674C234.698 1.10674 267.895 34.3076 267.895 75.0056C267.895 115.704 234.698 148.894 193.999 148.894C153.304 148.894 120.108 115.704 120.108 75.0056C120.108 34.3076 153.304 1.10674 193.999 1.10674Z" fill="white"/>
<path d="M243.99 97.2771L238.997 106.284L240.996 107.393L244.708 100.693L256.209 107.102L257.485 104.795L243.99 97.2771ZM248.186 82.413L247.785 85.1203L251.326 87.4059L249.613 93.185L245.437 93.4505L244.489 96.0745L261.051 94.9447L261.832 92.253L248.186 82.413ZM258.964 92.8309L258.958 92.8674L258.948 92.8934L251.737 93.0652L253.049 88.6398L258.964 92.8309ZM248.368 69.064L248.504 71.5734L259.682 70.9643V71.032L248.519 78.4093L248.379 81.1999L263.587 82.4807L263.842 79.6328L252.435 78.8727V78.7165L263.967 71.261L263.769 68.283L248.368 69.064ZM259.687 57.2143C260.552 60.2548 258.068 62.5716 255.262 63.2901C252.466 64.0086 249.441 63.54 248.618 60.4891C247.775 57.3601 250.211 55.163 252.987 54.3196C255.741 53.4762 258.807 54.1061 259.687 57.2143ZM261.76 56.5375C260.541 52.2162 256.324 50.42 252.206 51.7997C248.124 53.169 245.369 56.7614 246.556 61.1087C247.723 65.357 251.836 66.8304 255.985 65.7111C260.182 64.5761 262.978 60.8327 261.76 56.5375V56.5375ZM242.751 50.3107L243.87 52.6952L257.792 46.1196L256.678 43.7351L242.751 50.3107ZM246.832 32.7445L249.316 36.3733L238.601 43.5529L240.033 45.7604L250.763 38.5912L253.471 42.548L255.434 41.4183L248.639 31.3388L246.832 32.7445ZM227.808 32.0416L229.937 33.8222L233.748 31.823L237.992 36.1286L236.143 40.3145L237.893 42.4908L244.719 26.752L242.662 24.784L227.808 32.0416ZM241.881 27.6058L241.912 27.6371L241.928 27.6475L238.851 34.1919L235.638 30.839L241.881 27.6058ZM216.629 25.2057L218.951 26.299L224.137 16.5423L224.189 16.5788L225.012 29.9695L227.193 31.5783L235.43 18.6613L233.327 17.0109L227.204 26.5698L226.418 12.9031L223.851 11.6432L216.629 25.2057ZM203.488 21.0979L205.899 21.6446L207.606 15.6052L211.501 16.6829C213.833 17.3233 213.886 18.6822 213.12 21.3426C212.912 22.0559 212.693 22.9045 212.896 23.6438L215.562 24.7371C215.177 23.9926 215.448 22.0038 215.927 20.3169C216.583 18.0209 215.651 17.0109 214.802 16.6413L214.812 16.5996C215.323 16.5788 217.317 16.4174 218.103 13.6372C218.811 11.1798 217.764 9.01917 214.588 8.1393L207.617 6.20254L203.488 21.0979ZM209.564 8.99835L213.729 10.1385C215.052 10.4874 215.999 11.4297 215.468 13.2675C215.026 14.793 214.083 15.3189 212.48 14.8763L208.158 13.6841L209.564 8.99835ZM191.018 20.4367L202.02 20.8324L202.056 18.5624L193.7 18.2032L193.84 13.5851L201.442 13.7622L201.473 11.6119L193.882 11.4297L193.945 7.32711L202.088 7.728L202.129 5.44241L191.357 4.98946L191.018 20.4367ZM176.742 9.61791L181.241 8.86819L183.219 21.327L185.828 20.9105L183.849 8.42044L188.54 7.58743L188.295 5.19251L176.107 7.26464L176.742 9.61791ZM168.427 26.6635L170.63 25.5962L166.163 15.3865L166.225 15.3553L176.419 23.1856L179.07 22.3995L174.404 7.79048L171.895 8.52456L175.274 19.411L175.149 19.4214L164.798 11.336L162.247 12.6272L168.427 26.6635ZM164.106 29.2614L166.345 27.8661L158.254 14.819L156.02 16.2195L164.106 29.2614ZM148.892 44.0214L155.9 35.7642L154.312 34.1242L148.976 40.5436L145.513 37.4875L150.267 31.6772L148.768 30.183L143.827 35.9933L140.807 33.2599L146.128 27.1893L144.498 25.466L137.433 33.8378L148.892 44.0214ZM131.727 48.3896L133.971 44.1256L144.956 50.9615L146.201 48.6238L135.267 41.8087L137.615 37.5187L135.71 36.3421L129.608 47.4316L131.727 48.3896ZM142.228 57.7402L143.134 55.2619L128.702 49.889L127.801 52.3776L142.228 57.7402ZM139.302 74.7389L139.401 72.344L127.978 71.3131L139.802 68.3455L140.015 66.1848L129.092 59.6769L140.89 61.9625L141.489 59.6144L126.301 56.6156L125.583 60.1507L136.642 66.7159L136.636 66.7523L124.193 69.5013L124.01 73.5414L139.302 74.7389ZM126.577 83.8396C126.213 80.6012 128.774 79.1434 131.643 78.8363C134.549 78.5135 137.573 79.5443 137.985 82.741C138.396 85.9846 135.631 87.4892 132.778 87.9265C129.925 88.3847 126.947 87.0467 126.577 83.8396ZM124.401 84.1832C124.922 88.6554 129.056 91.2117 133.299 90.5349C137.558 89.8737 140.723 86.9165 140.109 82.413C139.5 77.9304 135.819 76.0821 131.56 76.332C127.27 76.5923 123.88 79.6745 124.401 84.1832ZM131.669 93.6587C128.821 95.2623 127.665 98.6516 129.076 101.739C131.034 106.065 135.533 107.195 139.463 105.441C143.405 103.691 145.696 99.8282 143.79 95.7309C142.353 92.6175 139.234 91.2117 135.756 92.3051L136.605 94.6531C138.693 93.9555 140.911 94.6531 141.869 96.7877C143.181 99.7397 140.848 101.942 138.214 103.124C135.569 104.306 132.492 103.915 131.18 100.958C130.284 98.9484 131.097 97.324 132.492 96.215L131.669 93.6587Z" fill="#231F20"/>
<path d="M228.339 136.213L237.278 130.091L236.003 128.17L229.24 132.871L226.704 129.117L232.837 124.78L231.624 122.974L225.491 127.311L223.221 123.786L229.906 119.173L228.62 117.257L219.758 123.307L228.339 136.213Z" fill="#231F20"/>
<path d="M216.842 141.394L219.581 140.399L218.675 123.833L216.27 124.911L217.15 137.911L217.108 137.932L209.095 127.529L206.528 128.284L216.842 141.394Z" fill="#231F20"/>
<path d="M197.304 145.012L208.066 143.721L207.603 141.514L199.543 142.43L198.975 137.802L206.041 136.958L205.608 134.839L198.632 135.677L198.153 131.507L205.952 130.716L205.53 128.451L195.544 129.654L197.304 145.012Z" fill="#231F20"/>
<path d="M164.182 138.383L174.377 142.184L174.965 139.997L167.41 137.17L168.941 132.823L175.736 135.436L176.282 133.364L169.639 130.803L171.024 126.794L178.292 129.735L178.88 127.585L169.425 123.852L164.182 138.383Z" fill="#231F20"/>
<path d="M164.392 129.455L159.024 126.055L157.894 127.685L161.387 129.918C159.919 131.975 157.592 132.474 155.363 130.897C152.698 129.012 153.208 125.821 154.822 123.457C156.441 121.099 159.091 119.656 161.767 121.515C163.35 122.608 164.22 124.441 163.314 126.201L165.568 127.487C167.125 124.477 165.709 121.65 162.981 119.761C159.227 117.142 155.035 118.417 152.63 121.932C150.23 125.451 150.412 130.048 154.156 132.651C155.686 133.714 157.102 133.922 159.169 133.432L158.815 135.588L160.216 136.41L164.392 129.455Z" fill="#231F20"/>
<path d="M178.634 143.326L181.164 143.862L183.169 132.637L183.231 132.648L189.297 144.872L192.124 145.018L192.842 129.639L190.473 129.571L190 140.858L189.958 140.848L183.934 128.717L181.253 128.165L178.634 143.326Z" fill="#231F20"/>
<path fill-rule="evenodd" clip-rule="evenodd" d="M119 75.0052C119 116.314 152.692 150 193.997 150C235.308 150 269 116.314 269 75.0052C269 33.6963 235.308 2.08162e-06 193.997 2.08162e-06C152.692 2.08162e-06 119 33.6963 119 75.0052ZM193.997 147.787C153.914 147.787 121.213 115.092 121.213 75.0052C121.213 34.9181 153.914 2.21269 193.997 2.21269C234.086 2.21269 266.787 34.9181 266.787 75.0052C266.787 115.092 234.086 147.787 193.997 147.787Z" fill="#231F20"/>
<path fill-rule="evenodd" clip-rule="evenodd" d="M142.176 75.0068C142.176 103.539 165.449 126.828 193.999 126.828C222.543 126.828 245.833 103.54 245.833 75.0068C245.833 46.4688 222.543 23.1802 193.999 23.1802C165.449 23.1802 142.176 46.4692 142.176 75.0068ZM193.999 124.615C166.672 124.615 144.389 102.318 144.389 75.0068C144.389 47.6907 166.672 25.3929 193.999 25.3929C221.321 25.3929 243.62 47.691 243.62 75.0068C243.62 102.317 221.321 124.615 193.999 124.615Z" fill="#231F20"/>
<path d="M183.245 64.2482V38.4143H204.753V64.2482H230.588V85.766H204.753V111.595H183.245V85.766H157.405V64.2482H183.245Z" fill="#ED1C24"/>
</g>
<defs>
<clipPath id="clip0_8_2">
<rect width="150" height="150" fill="white" transform="translate(119)"/>
</clipPath>
</defs>
</svg>
