<svg width="200" height="31" viewBox="0 0 200 31" fill="none" xmlns="http://www.w3.org/2000/svg">
<g clip-path="url(#clip0_8_39)">
<mask id="mask0_8_39" style="mask-type:luminance" maskUnits="userSpaceOnUse" x="0" y="0" width="200" height="31">
<path d="M199.043 0.971405H0.125V30.9259H199.043V0.971405Z" fill="white"/>
</mask>
<g mask="url(#mask0_8_39)">
<path d="M97.4001 18.9469C97.4001 12.3293 91.9317 6.9679 85.1879 6.9679H79.0818V0.971405H72.9756V6.96323H79.0818V12.9551H85.1879C88.5622 12.9551 91.294 15.6357 91.294 18.9469C91.294 22.258 88.5574 24.9387 85.1879 24.9387C81.8183 24.9387 79.0818 22.258 79.0818 18.9469V12.9551H72.9756V18.9469C72.9756 25.5645 78.444 30.9259 85.1879 30.9259C91.9317 30.9305 97.4001 25.5645 97.4001 18.9469Z" fill="black"/>
<path d="M112.32 20.7729C112.32 23.1874 110.488 25.1209 108.17 25.1209C106.69 25.1209 105.572 24.4344 104.944 23.2715V24.9481H103.321V12.9691H104.944V18.2744C105.572 17.1115 106.685 16.425 108.17 16.425C110.493 16.425 112.32 18.3585 112.32 20.7729ZM110.755 20.7729C110.755 19.1804 109.465 17.9335 107.842 17.9335C106.186 17.9335 104.948 19.129 104.948 20.7729C104.948 22.4168 106.186 23.6124 107.842 23.6124C109.465 23.6124 110.755 22.3655 110.755 20.7729Z" fill="black"/>
<path d="M122.419 16.5978V24.9481H120.816V23.2388C120.187 24.4344 119.074 25.1209 117.575 25.1209C115.271 25.1209 113.444 23.1874 113.444 20.7729C113.444 18.3585 115.276 16.425 117.575 16.425C119.074 16.425 120.192 17.1115 120.816 18.3071V16.5978H122.419ZM120.816 20.7729C120.816 19.129 119.578 17.9335 117.903 17.9335C116.28 17.9335 114.99 19.1804 114.99 20.7729C114.99 22.3655 116.28 23.6124 117.903 23.6124C119.578 23.6124 120.816 22.4168 120.816 20.7729Z" fill="black"/>
<path d="M132.966 20.7916C132.966 23.2388 131.029 25.1209 128.573 25.1209C126.098 25.1209 124.18 23.2388 124.18 20.7916C124.18 18.3258 126.098 16.4297 128.573 16.4297C131.034 16.425 132.966 18.3258 132.966 20.7916ZM125.751 20.7916C125.751 22.3841 126.969 23.6124 128.573 23.6124C130.158 23.6124 131.4 22.3795 131.4 20.7916C131.4 19.1664 130.163 17.9335 128.573 17.9335C126.969 17.9335 125.751 19.1664 125.751 20.7916Z" fill="black"/>
<path d="M136.769 23.9206L137.43 22.7391C138.092 23.3742 139.315 23.7992 140.29 23.7992C141.285 23.7992 141.947 23.3041 141.947 22.669C141.947 20.8056 137.03 22.0525 137.03 18.9749C137.03 17.4524 138.339 16.425 140.257 16.425C141.409 16.425 142.613 16.7846 143.341 17.4851L142.642 18.6807C142.013 18.0829 140.862 17.756 140.095 17.756C139.205 17.756 138.629 18.1856 138.629 18.8348C138.629 20.5301 143.565 19.4513 143.565 22.6176C143.565 24.056 142.242 25.1162 140.305 25.1162C138.982 25.1208 137.587 24.6398 136.769 23.9206Z" fill="black"/>
<path d="M152.736 16.5978L147.872 27.993H146.149L147.648 24.6585L144.212 16.5978H145.94L148.467 22.8278L151.013 16.5978H152.736Z" fill="black"/>
<path d="M153.259 23.9206L153.921 22.7391C154.582 23.3742 155.806 23.7992 156.781 23.7992C157.776 23.7992 158.437 23.3041 158.437 22.669C158.437 20.8056 153.521 22.0525 153.521 18.9749C153.521 17.4524 154.83 16.425 156.748 16.425C157.9 16.425 159.104 16.7846 159.832 17.4851L159.132 18.6807C158.504 18.0829 157.352 17.756 156.586 17.756C155.696 17.756 155.12 18.1856 155.12 18.8348C155.12 20.5301 160.056 19.4513 160.056 22.6176C160.056 24.056 158.733 25.1162 156.796 25.1162C155.477 25.1208 154.078 24.6398 153.259 23.9206Z" fill="black"/>
<path d="M166.357 24.878C166.114 24.9807 165.762 25.0508 165.434 25.0508C163.639 25.0508 162.364 23.9206 162.364 21.9358V18.1016H160.708V16.5978H162.364V14.3374H163.968V16.5978H166.271V18.1016H163.968V21.8657C163.968 22.9446 164.701 23.575 165.643 23.575C165.833 23.575 166.095 23.5423 166.271 23.491L166.357 24.878Z" fill="black"/>
<path d="M175.404 21.0625H168.603C168.76 22.669 169.874 23.6964 171.444 23.6964C172.525 23.6964 173.486 23.2154 173.919 22.4635L175.209 23.2855C174.562 24.4156 173.134 25.1162 171.392 25.1162C168.97 25.1162 167.033 23.2341 167.033 20.7356C167.033 18.3211 168.932 16.425 171.373 16.425C173.658 16.425 175.437 18.1716 175.437 20.4133C175.437 20.6001 175.423 20.857 175.404 21.0625ZM173.781 19.8669C173.677 18.62 172.649 17.7466 171.306 17.7466C169.964 17.7466 168.97 18.5873 168.675 19.8669H173.781Z" fill="black"/>
<path d="M190.572 19.8996V24.948H188.968V20.2265C188.968 18.8068 188.164 17.9335 186.86 17.9335C185.798 17.9335 184.699 18.6013 184.699 20.2265V24.948H183.095V20.2265C183.095 18.8068 182.291 17.9335 180.968 17.9335C179.94 17.9335 178.84 18.5686 178.84 20.2265V24.948H177.217V16.5978H178.84V17.8961C179.45 16.8033 180.549 16.425 181.506 16.425C182.848 16.425 183.79 16.9574 184.294 18.0689C184.785 17.0414 185.898 16.425 187.102 16.425C189.196 16.425 190.572 17.7607 190.572 19.8996Z" fill="black"/>
<path d="M192.247 23.9206L192.909 22.7391C193.57 23.3742 194.793 23.7992 195.769 23.7992C196.764 23.7992 197.425 23.3041 197.425 22.669C197.425 20.8056 192.509 22.0525 192.509 18.9749C192.509 17.4524 193.818 16.425 195.736 16.425C196.887 16.425 198.092 16.7846 198.82 17.4851L198.12 18.6807C197.492 18.0829 196.34 17.756 195.574 17.756C194.684 17.756 194.108 18.1856 194.108 18.8348C194.108 20.5301 199.043 19.4513 199.043 22.6176C199.043 24.056 197.72 25.1162 195.783 25.1162C194.46 25.1208 193.066 24.6398 192.247 23.9206Z" fill="black"/>
<path d="M7.08008 21.6348C7.08008 22.5996 6.90039 23.4062 6.54102 24.0547C6.18164 24.6992 5.66016 25.1855 4.97656 25.5137C4.29297 25.8379 3.46875 26 2.50391 26H0.125V17.4336H2.76172C3.64844 17.4336 4.41406 17.5938 5.05859 17.9141C5.70312 18.2305 6.20117 18.7012 6.55273 19.3262C6.9043 19.9473 7.08008 20.7168 7.08008 21.6348ZM5.61523 21.6758C5.61523 20.9727 5.50391 20.3945 5.28125 19.9414C5.0625 19.4883 4.73828 19.1523 4.30859 18.9336C3.88281 18.7109 3.35742 18.5996 2.73242 18.5996H1.53125V24.8223H2.52734C3.5625 24.8223 4.33594 24.5586 4.84766 24.0312C5.35938 23.5039 5.61523 22.7188 5.61523 21.6758Z" fill="black"/>
<path d="M10.8891 19.3906C11.4673 19.3906 11.9634 19.5098 12.3774 19.748C12.7915 19.9863 13.1098 20.3242 13.3325 20.7617C13.5552 21.1992 13.6665 21.7227 13.6665 22.332V23.0703H9.33643C9.35205 23.6992 9.52002 24.1836 9.84033 24.5234C10.1645 24.8633 10.6177 25.0332 11.1997 25.0332C11.6138 25.0332 11.9848 24.9941 12.313 24.916C12.645 24.834 12.9868 24.7148 13.3384 24.5586V25.6777C13.0141 25.8301 12.6841 25.9414 12.3481 26.0117C12.0122 26.082 11.6098 26.1172 11.1411 26.1172C10.5044 26.1172 9.94385 25.9941 9.45947 25.748C8.979 25.498 8.60205 25.127 8.32861 24.6348C8.05908 24.1426 7.92432 23.5312 7.92432 22.8008C7.92432 22.0742 8.04736 21.457 8.29346 20.9492C8.53955 20.4414 8.88525 20.0547 9.33057 19.7891C9.77588 19.5234 10.2954 19.3906 10.8891 19.3906ZM10.8891 20.4277C10.4555 20.4277 10.104 20.5684 9.83447 20.8496C9.56885 21.1309 9.4126 21.543 9.36572 22.0859H12.3188C12.3149 21.7617 12.2602 21.4746 12.1548 21.2246C12.0532 20.9746 11.897 20.7793 11.686 20.6387C11.479 20.498 11.2134 20.4277 10.8891 20.4277Z" fill="black"/>
<path d="M19.0987 24.1484C19.0987 24.5742 18.9952 24.9336 18.7881 25.2266C18.5811 25.5195 18.2784 25.7422 17.8799 25.8945C17.4854 26.043 17.001 26.1172 16.4268 26.1172C15.9737 26.1172 15.5831 26.084 15.2549 26.0176C14.9307 25.9551 14.6241 25.8574 14.335 25.7246V24.5352C14.6436 24.6797 14.9893 24.8047 15.3721 24.9102C15.7588 25.0156 16.1241 25.0684 16.4678 25.0684C16.921 25.0684 17.2471 24.998 17.4464 24.8574C17.6456 24.7129 17.7452 24.5215 17.7452 24.2832C17.7452 24.1426 17.7042 24.0176 17.6221 23.9082C17.544 23.7949 17.3956 23.6797 17.1768 23.5625C16.962 23.4414 16.6456 23.2969 16.2276 23.1289C15.8174 22.9648 15.4717 22.8008 15.1905 22.6367C14.9092 22.4727 14.6963 22.2754 14.5518 22.0449C14.4073 21.8105 14.335 21.5117 14.335 21.1484C14.335 20.5742 14.5616 20.1387 15.0147 19.8418C15.4717 19.541 16.0753 19.3906 16.8253 19.3906C17.2237 19.3906 17.5987 19.4316 17.9503 19.5137C18.3057 19.5918 18.6534 19.707 18.9932 19.8594L18.5596 20.8965C18.2667 20.7676 17.9717 20.6621 17.6749 20.5801C17.3819 20.4941 17.0831 20.4512 16.7784 20.4512C16.4229 20.4512 16.1514 20.5059 15.9639 20.6152C15.7803 20.7246 15.6885 20.8809 15.6885 21.084C15.6885 21.2363 15.7335 21.3652 15.8233 21.4707C15.9131 21.5762 16.0674 21.6816 16.2862 21.7871C16.5089 21.8926 16.8174 22.0234 17.212 22.1797C17.5987 22.3281 17.9327 22.4844 18.2139 22.6484C18.4991 22.8086 18.7178 23.0059 18.8702 23.2402C19.0225 23.4746 19.0987 23.7773 19.0987 24.1484Z" fill="black"/>
<path d="M21.4838 19.5137V26H20.1069V19.5137H21.4838ZM20.8041 17.0293C21.0151 17.0293 21.1967 17.0859 21.3491 17.1992C21.5053 17.3125 21.5834 17.5078 21.5834 17.7852C21.5834 18.0586 21.5053 18.2539 21.3491 18.3711C21.1967 18.4844 21.0151 18.541 20.8041 18.541C20.5854 18.541 20.3998 18.4844 20.2475 18.3711C20.0991 18.2539 20.0248 18.0586 20.0248 17.7852C20.0248 17.5078 20.0991 17.3125 20.2475 17.1992C20.3998 17.0859 20.5854 17.0293 20.8041 17.0293Z" fill="black"/>
<path d="M24.8299 28.8828C23.951 28.8828 23.2772 28.7246 22.8084 28.4082C22.3397 28.0918 22.1053 27.6484 22.1053 27.0781C22.1053 26.6797 22.2303 26.3418 22.4803 26.0645C22.7303 25.791 23.0877 25.6016 23.5526 25.4961C23.3768 25.418 23.2244 25.2969 23.0955 25.1328C22.9705 24.9648 22.908 24.7793 22.908 24.5762C22.908 24.334 22.9764 24.127 23.1131 23.9551C23.2498 23.7832 23.4549 23.6172 23.7283 23.457C23.3885 23.3125 23.1151 23.0781 22.908 22.7539C22.7049 22.4258 22.6033 22.041 22.6033 21.5996C22.6033 21.1309 22.7029 20.7324 22.9022 20.4043C23.1014 20.0723 23.3924 19.8203 23.7752 19.6484C24.158 19.4727 24.6209 19.3848 25.1639 19.3848C25.2811 19.3848 25.408 19.3926 25.5447 19.4082C25.6854 19.4199 25.8143 19.4355 25.9315 19.4551C26.0526 19.4707 26.1444 19.4883 26.2069 19.5078H28.451V20.2754L27.3494 20.4805C27.4549 20.6289 27.5389 20.7988 27.6014 20.9902C27.6639 21.1777 27.6951 21.3828 27.6951 21.6055C27.6951 22.2773 27.4627 22.8066 26.9979 23.1934C26.5369 23.5762 25.9002 23.7676 25.0877 23.7676C24.8924 23.7598 24.7029 23.7441 24.5194 23.7207C24.3787 23.8066 24.2713 23.9023 24.1971 24.0078C24.1229 24.1094 24.0858 24.2246 24.0858 24.3535C24.0858 24.459 24.1229 24.5449 24.1971 24.6113C24.2713 24.6738 24.3807 24.7207 24.5252 24.752C24.6736 24.7832 24.8533 24.7988 25.0643 24.7988H26.1834C26.8944 24.7988 27.4373 24.9492 27.8123 25.25C28.1873 25.5508 28.3748 25.9922 28.3748 26.5742C28.3748 27.3125 28.0701 27.8809 27.4608 28.2793C26.8514 28.6816 25.9744 28.8828 24.8299 28.8828ZM24.8826 27.916C25.3631 27.916 25.7674 27.8691 26.0955 27.7754C26.4236 27.6816 26.6717 27.5469 26.8397 27.3711C27.0076 27.1992 27.0916 26.9941 27.0916 26.7559C27.0916 26.5449 27.0389 26.3828 26.9334 26.2695C26.8279 26.1562 26.6697 26.0781 26.4588 26.0352C26.2479 25.9922 25.9861 25.9707 25.6736 25.9707H24.6541C24.4002 25.9707 24.1756 26.0098 23.9803 26.0879C23.785 26.1699 23.6326 26.2871 23.5233 26.4395C23.4178 26.5918 23.3651 26.7754 23.3651 26.9902C23.3651 27.2871 23.4959 27.5156 23.7576 27.6758C24.0233 27.8359 24.3983 27.916 24.8826 27.916ZM25.1522 22.8652C25.5545 22.8652 25.8533 22.7559 26.0486 22.5371C26.244 22.3145 26.3416 22.002 26.3416 21.5996C26.3416 21.1621 26.2401 20.834 26.0369 20.6152C25.8377 20.3965 25.5408 20.2871 25.1463 20.2871C24.7596 20.2871 24.4647 20.3984 24.2615 20.6211C24.0623 20.8438 23.9627 21.1738 23.9627 21.6113C23.9627 22.0059 24.0623 22.3145 24.2615 22.5371C24.4647 22.7559 24.7615 22.8652 25.1522 22.8652Z" fill="black"/>
<path d="M32.5355 19.3906C33.266 19.3906 33.8344 19.5801 34.2406 19.959C34.6508 20.334 34.8559 20.9375 34.8559 21.7695V26H33.4789V22.0273C33.4789 21.5234 33.3754 21.1465 33.1684 20.8965C32.9613 20.6426 32.641 20.5156 32.2074 20.5156C31.5785 20.5156 31.141 20.709 30.8949 21.0957C30.6527 21.4824 30.5316 22.043 30.5316 22.7773V26H29.1547V19.5137H30.227L30.4203 20.3926H30.4965C30.6371 20.166 30.8109 19.9805 31.018 19.8359C31.2289 19.6875 31.4633 19.5762 31.7211 19.502C31.9828 19.4277 32.2543 19.3906 32.5355 19.3906Z" fill="black"/>
<path d="M38.8876 19.3906C39.4657 19.3906 39.9618 19.5098 40.3759 19.748C40.7899 19.9863 41.1083 20.3242 41.3309 20.7617C41.5536 21.1992 41.6649 21.7227 41.6649 22.332V23.0703H37.3348C37.3505 23.6992 37.5184 24.1836 37.8387 24.5234C38.163 24.8633 38.6161 25.0332 39.1981 25.0332C39.6122 25.0332 39.9833 24.9941 40.3114 24.916C40.6434 24.834 40.9852 24.7148 41.3368 24.5586V25.6777C41.0126 25.8301 40.6825 25.9414 40.3466 26.0117C40.0106 26.082 39.6083 26.1172 39.1395 26.1172C38.5028 26.1172 37.9423 25.9941 37.4579 25.748C36.9774 25.498 36.6005 25.127 36.327 24.6348C36.0575 24.1426 35.9227 23.5312 35.9227 22.8008C35.9227 22.0742 36.0458 21.457 36.2919 20.9492C36.538 20.4414 36.8837 20.0547 37.329 19.7891C37.7743 19.5234 38.2938 19.3906 38.8876 19.3906ZM38.8876 20.4277C38.454 20.4277 38.1024 20.5684 37.8329 20.8496C37.5673 21.1309 37.411 21.543 37.3641 22.0859H40.3173C40.3134 21.7617 40.2587 21.4746 40.1532 21.2246C40.0516 20.9746 39.8954 20.7793 39.6845 20.6387C39.4774 20.498 39.2118 20.4277 38.8876 20.4277Z" fill="black"/>
<path d="M44.9173 26.1172C44.1439 26.1172 43.5228 25.8359 43.0541 25.2734C42.5892 24.707 42.3568 23.873 42.3568 22.7715C42.3568 21.6582 42.5931 20.8164 43.0658 20.2461C43.5423 19.6758 44.1693 19.3906 44.9466 19.3906C45.2748 19.3906 45.5619 19.4355 45.808 19.5254C46.0541 19.6113 46.265 19.7285 46.4408 19.877C46.6205 20.0254 46.7728 20.1914 46.8978 20.375H46.9623C46.9427 20.2539 46.9193 20.0801 46.892 19.8535C46.8685 19.623 46.8568 19.4102 46.8568 19.2148V16.8828H48.2396V26H47.1615L46.9154 25.1152H46.8568C46.7396 25.3027 46.5912 25.4727 46.4115 25.625C46.2357 25.7734 46.0248 25.8926 45.7787 25.9824C45.5365 26.0723 45.2494 26.1172 44.9173 26.1172ZM45.3041 24.998C45.8939 24.998 46.3099 24.8281 46.5521 24.4883C46.7943 24.1484 46.9193 23.6387 46.9271 22.959V22.7773C46.9271 22.0508 46.8099 21.4941 46.5755 21.1074C46.3412 20.7168 45.9134 20.5215 45.2923 20.5215C44.7962 20.5215 44.4173 20.7227 44.1556 21.125C43.8978 21.5234 43.7689 22.0801 43.7689 22.7949C43.7689 23.5098 43.8978 24.0566 44.1556 24.4355C44.4173 24.8105 44.8002 24.998 45.3041 24.998Z" fill="black"/>
<path d="M53.7483 16.8828V19.0801C53.7483 19.334 53.7404 19.584 53.7248 19.8301C53.7131 20.0723 53.7014 20.2617 53.6897 20.3984H53.7483C53.924 20.1172 54.1682 19.8809 54.4807 19.6895C54.7971 19.4941 55.2014 19.3965 55.6936 19.3965C56.4631 19.3965 57.0822 19.6797 57.551 20.2461C58.0197 20.8086 58.2541 21.6426 58.2541 22.748C58.2541 23.4824 58.1467 24.0996 57.9319 24.5996C57.717 25.0996 57.4143 25.4785 57.0237 25.7363C56.6369 25.9902 56.1819 26.1172 55.6584 26.1172C55.1662 26.1172 54.7678 26.0273 54.4631 25.8477C54.1623 25.6641 53.926 25.4512 53.7541 25.209H53.6545L53.4026 26H52.3713V16.8828H53.7483ZM55.3303 20.5156C54.9397 20.5156 54.6291 20.5938 54.3987 20.75C54.1721 20.9062 54.008 21.1406 53.9065 21.4531C53.8049 21.7617 53.7522 22.1543 53.7483 22.6309V22.7539C53.7483 23.4766 53.8615 24.0293 54.0881 24.4121C54.3186 24.7949 54.7365 24.9863 55.342 24.9863C55.8225 24.9863 56.1916 24.793 56.4494 24.4062C56.7072 24.0156 56.8362 23.457 56.8362 22.7305C56.8362 21.9961 56.7072 21.4434 56.4494 21.0723C56.1955 20.7012 55.8225 20.5156 55.3303 20.5156Z" fill="black"/>
<path d="M58.3895 19.5137H59.8895L61.2195 23.2168C61.2781 23.3848 61.3309 23.5508 61.3777 23.7148C61.4285 23.875 61.4715 24.0332 61.5066 24.1895C61.5457 24.3457 61.577 24.502 61.6004 24.6582H61.6355C61.6746 24.4551 61.7293 24.2285 61.7996 23.9785C61.8738 23.7246 61.9559 23.4707 62.0457 23.2168L63.323 19.5137H64.8055L62.0223 26.8906C61.8621 27.3125 61.6648 27.6719 61.4305 27.9688C61.2 28.2695 60.9266 28.4961 60.6102 28.6484C60.2938 28.8047 59.9324 28.8828 59.5262 28.8828C59.3309 28.8828 59.1609 28.8711 59.0164 28.8477C58.8719 28.8281 58.7488 28.8066 58.6473 28.7832V27.6816C58.7293 27.7012 58.8328 27.7188 58.9578 27.7344C59.0828 27.75 59.2117 27.7578 59.3445 27.7578C59.5906 27.7578 59.8035 27.709 59.9832 27.6113C60.1629 27.5137 60.3152 27.375 60.4402 27.1953C60.5652 27.0195 60.6688 26.8184 60.7508 26.5918L60.9793 25.9824L58.3895 19.5137Z" fill="black"/>
</g>
</g>
<defs>
<clipPath id="clip0_8_39">
<rect width="200" height="31" fill="white"/>
</clipPath>
</defs>
</svg>
