<svg width="188" height="86" viewBox="0 0 188 86" fill="none" xmlns="http://www.w3.org/2000/svg">
<g clip-path="url(#clip0_14_10)">
<path fill-rule="evenodd" clip-rule="evenodd" d="M66.3878 68.7279C66.3968 68.7049 66.2198 68.3649 66.1628 68.2239C66.0978 68.0639 66.1028 67.6579 66.1238 67.5659C66.1478 67.4569 66.1057 67.4529 66.0627 67.3259C66.0477 67.2849 66.0948 67.0129 66.0848 66.8809C66.0808 66.8199 65.8567 66.3769 65.8397 66.2869C65.8227 66.2009 65.8537 65.9899 65.8397 65.8419C65.8297 65.7619 65.8137 65.6939 65.7837 65.6189L64.8478 62.7889L64.4558 61.5229C64.4228 61.4189 63.8138 60.4249 63.7778 60.3159C63.1108 58.2929 61.0218 54.9229 58.8868 53.5779C58.8168 53.5329 58.2368 52.8299 58.1438 52.7599C58.0218 52.6699 57.6598 52.5059 57.6048 52.4529C57.4418 52.2989 57.3208 52.0099 57.0658 52.0739C57.0108 52.0879 56.9688 52.1169 56.9358 52.1619C56.8818 52.2319 56.2518 53.8079 56.1448 53.9999C56.0308 54.2049 55.8808 54.4119 55.8218 54.5469C55.7328 54.7949 55.6768 55.0119 55.6328 55.2719C55.0148 57.7579 50.3628 65.7099 49.1818 67.9359L44.7688 76.2469C43.9578 77.5359 44.0428 76.2079 43.7548 76.0789C43.3608 75.9009 43.4458 76.2059 43.2198 76.3679C42.9408 76.5689 42.2538 76.7019 41.9718 76.6919C41.9298 76.6899 41.4658 76.9439 41.3408 76.9809C41.1948 77.0239 41.0668 76.9949 41.0578 76.8359C41.0538 76.7679 41.1118 76.5759 41.1248 76.4689C41.1358 76.3749 41.1018 76.3129 41.0358 76.2459C40.9408 76.1499 40.9048 76.2109 40.7228 76.3009C40.5518 76.3869 40.5328 76.3129 40.4108 76.1449C40.2788 75.9629 38.8108 75.6289 38.6498 75.6999C38.4388 75.7939 38.0618 76.1469 37.9028 75.9339C37.8408 75.8499 37.8648 75.6409 37.8368 75.4889C37.8158 75.3579 37.7158 75.2599 37.5848 75.2429C37.3338 75.2309 37.1268 75.3499 37.0788 75.2429C36.9988 75.0709 37.0788 74.9729 36.9778 74.8989C36.9308 74.8619 36.6018 74.7779 36.5548 74.7429C36.4258 74.6469 36.4278 74.5199 36.2868 74.4519C36.2568 74.4399 36.2298 74.4319 36.1978 74.4309C35.8798 74.4039 35.7148 74.4969 35.5538 74.4059C35.3688 74.3009 35.2558 74.0559 35.1838 73.7749C35.1278 73.5539 35.0788 72.9999 35.0508 72.9509C35.0308 72.9159 34.9708 72.8899 34.9278 72.8829C34.8238 72.8629 34.6098 72.9609 34.5038 73.0059C34.3188 73.0839 28.7888 76.1839 28.6208 76.3029C28.0318 76.7229 27.8208 76.9379 27.7518 77.6059C27.5588 79.4669 28.4848 84.9029 31.0498 85.6159C31.3928 85.7119 31.6028 85.6199 31.9188 85.4829L57.3228 73.0509C58.1838 72.6209 65.5938 69.1309 65.7908 69.0629C65.8938 69.0269 66.3748 68.7559 66.3878 68.7279ZM21.5598 63.1229C21.5688 63.1229 21.5608 63.1429 21.5508 63.1579C21.5318 63.1849 21.4978 63.1969 21.4668 63.2069C21.3668 63.2339 7.07276 70.8119 5.89876 71.4059L1.16976 74.0719C0.610757 74.3959 0.279757 74.9239 0.233757 75.5679C0.107757 77.5149 1.26776 80.2089 2.49576 81.8589C2.83176 82.3099 3.59776 83.3019 4.24576 83.4739C4.58076 83.5619 4.84476 83.4739 5.13676 83.3839C5.28576 83.3389 19.8598 76.5109 21.7058 75.6199C26.4718 73.5219 30.5028 71.7699 35.2888 69.7179C35.5408 69.6129 35.6108 69.5699 35.6678 69.3489C35.7378 69.0779 35.8218 68.5029 35.8798 68.3349C35.9258 68.1979 36.1088 67.8759 36.2358 67.6219C36.3378 67.4189 36.7008 66.3579 36.9478 65.7739C37.0328 65.5729 37.1228 65.3909 37.1938 65.1939C37.3078 64.8759 37.4148 64.3369 37.5168 64.0569L42.7098 51.1039L45.2278 44.9889C45.6068 43.7869 45.5618 43.4599 46.2418 42.3149C46.3478 42.1369 47.1608 39.5729 47.1888 39.3739C47.2398 39.0159 47.5768 38.5899 47.2268 38.5059C47.0678 38.4669 46.7418 38.5569 46.5658 38.6169C46.0958 38.7909 45.7058 38.9529 45.2508 39.1629C31.4998 45.5479 20.0628 51.3149 6.75376 58.5769C5.83176 59.0979 5.06376 59.5539 4.16576 60.1139C3.54276 60.4689 3.20176 61.1019 3.24476 61.8169C3.41676 64.1309 3.97476 66.0629 5.06076 68.1119C5.44776 68.7959 5.94776 68.7289 6.74276 68.5239C6.91676 68.4789 10.5638 67.0339 11.8018 66.5199L21.3508 63.1659C21.4208 63.1459 21.4838 63.1329 21.5598 63.1229ZM71.4988 47.1049C71.4558 47.2789 71.9298 47.7399 72.0388 47.8469C72.3668 48.1649 72.8807 48.6149 73.0207 48.7789C74.3927 50.4269 75.3128 52.0229 76.0528 54.0349C76.0608 54.0559 91.2208 53.7909 91.3178 53.7669C98.7208 51.2399 105.06 49.3669 112.648 47.4619C112.979 47.3409 113.202 47.2669 113.316 46.9929C114.386 44.4519 113.237 39.4269 111.889 37.2359C111.499 36.6019 111.054 36.6079 110.274 36.7909C108.794 37.1379 99.5368 39.1179 97.1928 39.6539C88.8598 41.6329 81.8898 43.5829 73.7378 46.2149C73.1718 46.3939 71.5478 46.9119 71.4988 47.1049ZM58.3958 34.5119C58.3338 34.6749 58.4688 34.8139 58.5518 34.8869C58.6778 34.9969 60.7958 36.3449 60.9918 36.5019C61.1358 36.6159 61.2488 36.7219 61.3708 36.8589C61.9958 37.5579 62.0048 37.7679 62.5628 38.1729C63.1668 38.6109 62.8998 38.4179 63.4648 39.0379C63.6458 39.2369 64.5108 39.9799 64.6678 40.1559C64.8928 40.4079 64.9097 40.4549 65.1587 40.6019C65.2387 40.6489 69.0377 44.4129 69.1027 44.5009C69.4077 44.9129 69.7858 45.6849 70.2368 45.6359C70.3018 45.6299 79.7907 41.0139 80.3117 40.7359C82.7107 39.5899 84.7458 38.6409 87.1648 37.5389C91.0268 35.8319 98.3178 32.5449 99.0638 32.2369C99.7498 31.9539 100.11 31.7499 100.067 31.0719C99.9438 29.1279 97.6408 23.3519 95.7208 22.2009C95.2508 21.9179 94.7498 22.1089 94.1608 22.2789C89.1888 23.7129 58.8408 33.3259 58.3958 34.5119ZM89.3487 18.2149L89.7277 17.1379C89.7397 17.1089 89.7477 17.0829 89.7517 17.0529C89.7787 16.8149 89.6418 16.8239 89.5378 16.6739C89.4538 16.5519 89.4388 16.0449 89.4268 16.0059C89.4068 15.9449 89.3797 15.8969 89.3377 15.8499C89.1477 15.6239 88.8577 15.4179 88.7807 15.2479C88.7497 15.1809 88.6768 14.1769 88.6468 14.1119C88.6148 14.0429 88.4877 13.9069 88.4077 13.7959C88.3867 13.7679 88.3718 13.7429 88.3578 13.7109C88.3168 13.6149 88.2838 13.3469 88.2588 13.3149C88.2278 13.2749 88.1157 13.2339 88.0907 13.1979C88.0727 13.1729 88.0588 13.0759 88.0638 13.0069C88.0818 12.7629 88.1227 12.6459 87.9797 12.5069C87.7517 12.2879 87.6377 12.3249 87.5567 12.0619C87.4017 11.5599 86.5688 11.3069 85.9848 11.3939C85.8778 11.4099 85.2568 11.6789 85.0268 11.7389C84.7988 11.7779 84.6028 11.7949 84.3718 11.7949C83.7488 11.7739 83.7447 11.7689 83.0207 12.0729C82.8517 12.1439 77.6497 13.6219 76.8257 13.8329C55.0697 20.0979 37.2848 27.5129 17.5228 38.5569C17.2068 38.7499 16.6038 39.1069 16.3778 39.3969C16.1518 39.6889 16.1058 39.9109 15.8988 40.0539C15.8248 40.1049 15.5718 40.1929 15.3858 40.2769C15.3118 40.3099 14.7208 40.7889 14.6838 40.8449C14.6358 40.9189 14.5588 41.1199 14.6618 41.2679C14.6878 41.3059 14.7398 41.3309 14.7848 41.3459C14.8698 41.3749 14.9698 41.3809 15.0518 41.4129C15.1468 41.4489 15.2388 41.5229 15.3198 41.5469C15.5578 41.6149 15.5958 41.5399 15.7098 41.6919C15.7848 41.7919 15.9488 42.2669 16.0778 42.3489C16.2048 42.4309 16.3848 42.4269 16.4458 42.5159C16.4548 42.5309 16.4618 42.5439 16.4678 42.5599C16.5038 42.6449 16.6738 43.7989 16.6738 43.9539C16.6738 44.0589 16.6108 44.6859 16.7698 44.7999C16.9048 44.8959 17.2418 44.8179 17.3938 44.7769C18.0328 44.6049 17.9998 44.3469 18.7748 43.8199L20.6918 42.7389C20.8068 42.6629 21.0758 42.5659 21.1148 42.5279C21.1588 42.4769 21.1918 42.4299 21.2268 42.3719C21.3518 42.1939 21.5268 42.1459 21.8058 42.0599C22.0578 41.9829 22.0688 42.0549 22.3408 42.2609C22.9008 42.6849 23.3588 42.9859 24.0118 42.5059C24.3038 42.3209 24.5588 42.1779 24.8698 42.0269C45.2788 32.3449 63.3838 25.9559 85.3497 20.6849C85.7497 20.6099 89.0698 19.8029 89.1498 19.7609C89.6278 19.5079 89.5038 18.9709 89.3448 18.3439C89.3288 18.2849 89.3297 18.2719 89.3487 18.2149ZM46.4518 10.4359C46.4518 12.2899 47.2328 15.6629 49.0148 16.8739C49.2168 17.0109 49.4468 17.0819 49.5608 17.2519C49.7278 17.5019 49.6618 17.5779 49.8838 17.6419C50.2268 17.7399 50.2678 17.6369 50.8958 17.6529C50.9908 17.6549 51.4258 17.7249 51.5558 17.6969C51.7688 17.6519 51.8948 17.5289 52.0678 17.6409C52.1748 17.7099 52.1438 17.7519 52.2128 17.8749C52.3248 18.0759 52.9168 18.0459 53.0798 18.0309C53.6948 17.9719 54.2218 17.8139 54.5198 17.3179C54.6078 17.1719 54.9768 16.5649 55.4128 16.3759C55.6438 16.2759 55.6878 16.3169 55.7868 16.2329C55.9878 16.0619 56.2128 15.5949 56.2878 15.4889C56.3528 15.3969 56.8428 14.9649 57.1378 14.6899C58.5988 13.3269 60.5608 9.09991 60.1138 6.73191C60.0178 6.22491 59.6488 4.54991 59.3668 4.12991C59.2468 3.95091 59.0338 3.77091 58.9658 3.57291C58.9458 3.51491 58.9388 3.45491 58.9208 3.39491C58.6488 2.42891 56.9288 0.305914 55.9548 0.297914C55.8548 0.296914 55.7668 0.312914 55.6788 0.297914C55.5958 0.284914 55.2698 0.118913 55.1668 0.0979129C55.0648 0.0769129 54.6148 0.0989126 54.5208 0.153913C54.1508 0.355913 53.8158 0.486915 53.4068 0.587915C53.2188 0.634915 53.1468 0.615912 53.0108 0.717912C52.8848 0.811912 52.7668 0.963914 52.6508 1.04791C52.5848 1.09491 52.2678 1.20391 52.0698 1.29091C50.3168 2.05991 48.3188 4.40591 47.6688 6.11391C47.4418 6.70391 46.4518 9.86591 46.4518 10.4359Z" fill="#EE342A"/>
<path d="M81.7858 67.2149L86.0818 58.9829C85.9338 59.6449 85.7888 60.2389 85.6568 60.7759L85.4138 61.7619L84.1048 66.6039C83.9538 67.1609 83.7558 67.8419 83.4678 68.6489H85.5478C85.7028 67.8969 85.8468 67.2509 85.9698 66.7489C86.0408 66.4619 86.1168 66.2099 86.1648 66.0149L88.0248 59.2339C88.1538 58.7689 88.3678 57.9609 88.7178 56.7769H85.4408C85.1508 57.4059 84.8938 57.9079 84.6918 58.3019L80.5418 66.1219L81.0038 57.9599C81.0158 57.8529 81.0378 57.4579 81.0998 56.7759H77.6728C76.1818 61.9949 74.9088 65.9599 73.9038 68.6489H75.9538C76.3428 67.2509 76.6468 66.1919 76.8678 65.4749L79.0218 58.7129L78.5558 67.3769C78.5378 67.7519 78.4928 68.1839 78.4378 68.6479H81.0718C81.3018 68.1459 81.5358 67.6819 81.7858 67.2149ZM87.1858 68.6479H94.5478L95.1998 66.2979C94.0758 66.4249 92.8058 66.4779 91.3848 66.4779C90.8608 66.4779 90.4018 66.4599 89.9868 66.4429L90.0488 66.1909C90.1768 65.6709 90.3258 65.1869 90.4698 64.7199L90.8488 63.4839H94.1258C94.5898 63.4839 95.0687 63.4839 95.5347 63.5369L96.1448 61.2949C95.5878 61.3669 95.0347 61.3669 94.4657 61.3669H91.4438L91.7708 60.2189C91.9418 59.6449 92.0818 59.1979 92.2358 58.8749H95.6177C95.8427 58.8749 96.4358 58.8929 97.3668 58.9449L97.9738 56.7749H90.6098C89.3258 61.7619 88.1728 65.7259 87.1858 68.6479ZM95.8488 68.6479H100.399C103.617 68.6479 106.195 66.1909 107.165 62.2459C107.685 60.1289 107.478 58.5329 106.659 57.6009C105.97 56.8119 105.021 56.7749 103.764 56.7749H99.2738C97.9458 61.9409 96.7778 65.9039 95.8488 68.6479ZM98.7548 66.5679L98.9218 65.8859C99.0758 65.2589 99.2358 64.6669 99.4008 64.0579L100.873 58.8569H102.698C103.701 58.8569 104.389 58.8569 104.77 59.3769C105.183 59.9509 105.236 60.9549 104.892 62.3539C104.508 63.9149 103.769 65.0979 102.746 65.8519C101.781 66.5509 100.924 66.5689 99.8148 66.5689L98.7548 66.5679ZM106.733 68.6479H114.096L114.747 66.2979C113.624 66.4249 112.353 66.4779 110.933 66.4779C110.409 66.4779 109.95 66.4599 109.535 66.4429L109.597 66.1909C109.725 65.6709 109.874 65.1869 110.018 64.7199L110.397 63.4839H113.674C114.138 63.4839 114.617 63.4839 115.082 63.5369L115.692 61.2949C115.136 61.3669 114.583 61.3669 114.013 61.3669H110.991L111.318 60.2189C111.489 59.6449 111.629 59.1979 111.783 58.8749H115.165C115.39 58.8749 115.983 58.8929 116.913 58.9449L117.52 56.7749H110.158C108.873 61.7619 107.72 65.7259 106.733 68.6479ZM126.213 59.0349L126.678 56.7749C125.72 56.5949 124.934 56.5069 124.32 56.5069C120.399 56.5069 117.756 58.8019 116.729 62.9819C115.783 66.8369 117.142 68.9179 120.749 68.9179C121.617 68.9179 122.516 68.7929 123.434 68.6479L124.262 66.1909C123.293 66.4779 122.42 66.6229 121.642 66.6229C119.233 66.6229 118.281 65.2599 118.911 62.6949C119.563 60.0389 121.273 58.4979 123.578 58.4979C124.624 58.4979 125.499 58.7129 126.213 59.0349ZM130.686 56.7749H128.366C127.029 61.9759 125.861 65.9409 124.927 68.6479H127.277C127.43 67.9679 127.575 67.3769 127.69 66.9099C127.778 66.5509 127.848 66.2639 127.924 66.0139L129.884 59.2519C130.107 58.4629 130.384 57.6369 130.686 56.7749ZM135.006 68.6479H138.462C138.581 68.1639 138.677 67.7159 138.769 67.3389C138.906 66.7819 139.027 66.3529 139.125 66.0129L141.069 59.2509C141.293 58.4619 141.57 57.6359 141.872 56.7739H139.821C139.764 57.0079 139.721 57.2409 139.669 57.4559C139.484 58.2099 139.287 58.8919 139.094 59.5559L137.063 66.7299L135.827 56.7749H132.534C131.008 62.2629 129.885 66.2279 129.035 68.6479H131.086C131.369 67.5539 131.688 66.3179 132.083 64.9549L133.896 58.6049L134.709 65.3489C134.841 66.5149 134.981 67.5919 135.006 68.6479ZM143.179 62.4979L144.846 64.6679C145.127 65.0449 145.225 65.4389 145.146 65.7619C144.97 66.4789 144.272 66.9459 143.254 66.9459C142.551 66.9459 141.623 66.6409 140.573 65.9769L140.13 68.2739C140.625 68.6309 141.617 68.9189 142.919 68.9189C145.148 68.9189 146.768 67.6279 147.222 65.7799C147.499 64.6509 147.206 63.7719 146.436 62.7659L144.616 60.3639C144.46 60.1489 144.422 59.8799 144.492 59.5929C144.672 58.8589 145.355 58.3919 146.448 58.3919C147.076 58.3919 147.712 58.6069 148.451 58.9469L148.851 56.8319C148.012 56.6519 147.215 56.5449 146.437 56.5449C144.252 56.5449 142.866 57.6209 142.416 59.4489C142.117 60.6679 142.398 61.4739 143.179 62.4979ZM63.4348 77.5879L65.0988 79.7379C65.3798 80.1129 65.4768 80.5039 65.3978 80.8239C65.2218 81.5349 64.5248 81.9979 63.5098 81.9979C62.8078 81.9979 61.8818 81.6949 60.8348 81.0369L60.3918 83.3119C60.8868 83.6669 61.8768 83.9529 63.1758 83.9529C65.4008 83.9529 67.0168 82.6739 67.4698 80.8419C67.7468 79.7209 67.4538 78.8499 66.6848 77.8539L64.8698 75.4709C64.7138 75.2579 64.6748 74.9909 64.7448 74.7069C64.9248 73.9769 65.6068 73.5139 66.6968 73.5139C67.3238 73.5139 67.9588 73.7289 68.6968 74.0669L69.0958 71.9669C68.2588 71.7889 67.4628 71.6839 66.6868 71.6839C64.5058 71.6839 63.1228 72.7499 62.6738 74.5649C62.3758 75.7729 62.6558 76.5739 63.4348 77.5879ZM66.4208 83.6869H68.6918C69.0318 82.9739 69.3408 82.3879 69.6538 81.9079L71.4708 79.0269H74.9058L75.0978 82.2979C75.1158 82.5299 75.0758 82.9929 75.0088 83.6869H77.3988L76.8588 73.9059C76.8228 73.2649 76.8258 72.5899 76.8428 71.9139H73.8558C73.5478 72.5549 73.2798 73.0349 73.0658 73.3549L66.4208 83.6869ZM74.7608 73.5139L74.9288 77.1249H72.5538L74.7608 73.5139ZM83.6488 83.6869H87.0988C87.2178 83.2069 87.3128 82.7609 87.4048 82.3879C87.5418 81.8369 87.6618 81.4089 87.7598 81.0719L89.7008 74.3689C89.9238 73.5859 90.2008 72.7669 90.5018 71.9139H88.4558C88.3988 72.1439 88.3568 72.3769 88.3038 72.5899C88.1188 73.3379 87.9217 74.0119 87.7297 74.6699L85.7028 81.7829L84.4678 71.9139H81.1818C79.6578 77.3549 78.5368 81.2849 77.6898 83.6869H79.7358C80.0188 82.6009 80.3368 81.3739 80.7308 80.0229L82.5408 73.7279L83.3528 80.4139C83.4848 81.5699 83.6238 82.6369 83.6488 83.6869ZM91.8058 77.5879L93.4698 79.7379C93.7508 80.1129 93.8478 80.5039 93.7688 80.8239C93.5928 81.5349 92.8958 81.9979 91.8808 81.9979C91.1788 81.9979 90.2538 81.6949 89.2058 81.0369L88.7628 83.3119C89.2578 83.6669 90.2468 83.9529 91.5468 83.9529C93.7718 83.9529 95.3878 82.6739 95.8398 80.8419C96.1168 79.7209 95.8238 78.8499 95.0548 77.8539L93.2398 75.4709C93.0838 75.2579 93.0448 74.9909 93.1148 74.7069C93.2948 73.9769 93.9768 73.5139 95.0668 73.5139C95.6938 73.5139 96.3288 73.7289 97.0658 74.0669L97.4647 71.9669C96.6278 71.7889 95.8328 71.6839 95.0558 71.6839C92.8758 71.6839 91.4918 72.7499 91.0428 74.5649C90.7458 75.7729 91.0258 76.5739 91.8058 77.5879ZM100.47 83.6869H102.726C102.821 83.2419 102.926 82.8139 103.032 82.3879C103.261 81.4619 103.502 80.6089 103.749 79.7919L104.127 78.5629H106.815C107.278 78.5629 107.741 78.5629 108.206 78.6179L108.83 76.3929C108.353 76.4479 107.797 76.4649 107.154 76.4649H104.72L105.046 75.3259C105.216 74.7579 105.356 74.3119 105.51 73.9919H108.288C108.512 73.9919 109.104 74.0099 110.032 74.0639L110.654 71.9119H103.887C102.607 76.8569 101.455 80.7889 100.47 83.6869ZM108.369 83.6869H110.684C111.252 81.5699 111.562 80.3779 111.647 80.0929L112.926 75.5229C113.09 74.9189 113.286 74.3689 113.503 73.8529C113.975 73.8159 114.412 73.7979 114.785 73.7979C116.175 73.7979 116.719 74.0109 116.429 75.1849C116.13 76.3939 115.245 77.0169 113.766 77.0169C113.483 77.0169 113.203 76.9989 112.917 76.9469L113.656 83.6869H116.001C115.709 81.9079 115.482 80.1659 115.292 78.4579C117.008 77.7999 118.085 76.6439 118.48 75.0439C118.828 73.6379 118.596 72.6419 117.955 72.2159C117.532 71.9309 116.939 71.9129 116.192 71.9129H111.786C110.462 77.0349 109.296 80.9669 108.369 83.6869ZM122.669 83.9349C126.164 83.9349 128.887 81.4989 129.858 77.5679C130.79 73.7979 129.331 71.6659 125.702 71.6659C122.207 71.6659 119.484 74.1019 118.508 78.0489C117.581 81.8029 119.055 83.9349 122.669 83.9349ZM120.753 78.0309C121.439 75.2579 123.023 73.7459 125.203 73.7459C127.383 73.7459 128.214 75.0979 127.599 77.5879C126.909 80.3789 125.315 81.8729 123.075 81.8729C121.013 81.8729 120.151 80.4689 120.753 78.0309ZM135.458 83.6869H138.908C139.026 83.2069 139.121 82.7609 139.214 82.3879C139.351 81.8369 139.471 81.4089 139.569 81.0719L141.509 74.3689C141.733 73.5859 142.009 72.7669 142.31 71.9139H140.264C140.206 72.1439 140.164 72.3769 140.112 72.5899C139.927 73.3379 139.731 74.0119 139.538 74.6699L137.512 81.7829L136.278 71.9139H132.992C131.468 77.3549 130.346 81.2849 129.5 83.6869H131.546C131.829 82.6009 132.148 81.3739 132.541 80.0229L134.351 73.7279L135.163 80.4139C135.294 81.5699 135.434 82.6369 135.458 83.6869ZM147.509 73.7989C147.812 73.7809 148.111 73.7809 148.424 73.7809C149.096 73.7809 149.76 73.8159 150.429 73.8879L151.007 71.9129H143.136L142.543 73.8879C143.308 73.8159 144.048 73.7809 144.735 73.7809C144.973 73.7809 145.213 73.7809 145.447 73.7989C144.556 77.1599 143.545 80.4689 142.421 83.6879H144.751C144.819 83.3499 144.907 82.9949 145 82.6199C145.185 81.8739 145.41 81.0199 145.688 80.0769L147.509 73.7989ZM154.229 71.9139H151.914C150.58 77.0719 149.414 81.0019 148.481 83.6869H150.826C150.978 83.0109 151.124 82.4229 151.238 81.9599C151.326 81.6049 151.396 81.3209 151.472 81.0709L153.428 74.3679C153.652 73.5859 153.928 72.7669 154.229 71.9139ZM152.566 83.6869H159.915L160.565 81.3569C159.444 81.4819 158.176 81.5349 156.757 81.5349C156.235 81.5349 155.776 81.5169 155.361 81.4999L155.423 81.2499C155.551 80.7339 155.699 80.2539 155.843 79.7929L156.222 78.5639H159.493C159.956 78.5639 160.434 78.5639 160.899 78.6189L161.507 76.3939C160.952 76.4659 160.4 76.4659 159.832 76.4659H156.814L157.14 75.3269C157.311 74.7589 157.451 74.3129 157.605 73.9929H160.98C161.204 73.9929 161.797 74.0109 162.724 74.0649L163.33 71.9129H155.982C154.703 76.8569 153.551 80.7889 152.566 83.6869ZM161.198 83.6869H163.513C164.08 81.5699 164.39 80.3779 164.476 80.0929L165.754 75.5229C165.919 74.9189 166.114 74.3689 166.332 73.8529C166.804 73.8159 167.241 73.7979 167.614 73.7979C169.003 73.7979 169.548 74.0109 169.258 75.1849C168.959 76.3939 168.073 77.0169 166.595 77.0169C166.312 77.0169 166.032 76.9989 165.746 76.9469L166.484 83.6869H168.829C168.537 81.9079 168.311 80.1659 168.121 78.4579C169.837 77.7999 170.914 76.6439 171.309 75.0439C171.656 73.6379 171.424 72.6419 170.783 72.2159C170.361 71.9309 169.767 71.9129 169.021 71.9129H164.615C163.29 77.0349 162.124 80.9669 161.198 83.6869ZM170.002 83.6869H177.351L178.001 81.3569C176.88 81.4819 175.612 81.5349 174.193 81.5349C173.671 81.5349 173.212 81.5169 172.797 81.4999L172.859 81.2499C172.987 80.7339 173.135 80.2539 173.28 79.7929L173.658 78.5639H176.929C177.392 78.5639 177.87 78.5639 178.335 78.6189L178.943 76.3939C178.388 76.4659 177.836 76.4659 177.268 76.4659H174.251L174.576 75.3269C174.747 74.7589 174.887 74.3129 175.041 73.9929H178.416C178.64 73.9929 179.233 74.0109 180.161 74.0649L180.767 71.9129H173.418C172.139 76.8569 170.988 80.7889 170.002 83.6869ZM181.651 77.5879L183.315 79.7379C183.596 80.1129 183.693 80.5039 183.614 80.8239C183.438 81.5349 182.741 81.9979 181.726 81.9979C181.024 81.9979 180.098 81.6949 179.05 81.0369L178.607 83.3119C179.102 83.6669 180.092 83.9529 181.391 83.9529C183.617 83.9529 185.233 82.6739 185.685 80.8419C185.962 79.7209 185.669 78.8499 184.901 77.8539L183.086 75.4709C182.93 75.2579 182.891 74.9909 182.961 74.7069C183.141 73.9769 183.823 73.5139 184.913 73.5139C185.54 73.5139 186.175 73.7289 186.912 74.0669L187.311 71.9669C186.474 71.7889 185.679 71.6839 184.902 71.6839C182.722 71.6839 181.339 72.7499 180.89 74.5649C180.591 75.7729 180.87 76.5739 181.651 77.5879Z" stroke="white" stroke-width="0.216" stroke-miterlimit="2.6131"/>
<path fill-rule="evenodd" clip-rule="evenodd" d="M66.4208 83.6869H68.6918C69.0318 82.9739 69.3408 82.3879 69.6538 81.9079L71.4708 79.0269H74.9058L75.0978 82.2979C75.1158 82.5299 75.0758 82.9929 75.0088 83.6869H77.3988L76.8588 73.9059C76.8228 73.2649 76.8258 72.5899 76.8428 71.9139H73.8558C73.5478 72.5549 73.2798 73.0349 73.0658 73.3549L66.4208 83.6869ZM74.7608 73.5139L74.9288 77.1249H72.5538L74.7608 73.5139ZM81.7858 67.2149L86.0818 58.9829C85.9338 59.6449 85.7888 60.2389 85.6568 60.7759L85.4138 61.7619L84.1048 66.6039C83.9538 67.1609 83.7558 67.8419 83.4678 68.6489H85.5478C85.7028 67.8969 85.8468 67.2509 85.9698 66.7489C86.0408 66.4619 86.1168 66.2099 86.1648 66.0149L88.0248 59.2339C88.1538 58.7689 88.3678 57.9609 88.7178 56.7769H85.4408C85.1508 57.4059 84.8938 57.9079 84.6918 58.3019L80.5418 66.1219L81.0038 57.9599C81.0158 57.8529 81.0378 57.4579 81.0998 56.7759H77.6728C76.1818 61.9949 74.9088 65.9599 73.9038 68.6489H75.9538C76.3428 67.2509 76.6468 66.1919 76.8678 65.4749L79.0218 58.7129L78.5558 67.3769C78.5378 67.7519 78.4928 68.1839 78.4378 68.6479H81.0718C81.3018 68.1459 81.5358 67.6819 81.7858 67.2149ZM87.1858 68.6479H94.5478L95.1998 66.2979C94.0758 66.4249 92.8058 66.4779 91.3848 66.4779C90.8608 66.4779 90.4018 66.4599 89.9868 66.4429L90.0488 66.1909C90.1768 65.6709 90.3258 65.1869 90.4698 64.7199L90.8488 63.4839H94.1258C94.5898 63.4839 95.0687 63.4839 95.5347 63.5369L96.1448 61.2949C95.5878 61.3669 95.0347 61.3669 94.4657 61.3669H91.4438L91.7708 60.2189C91.9418 59.6449 92.0818 59.1979 92.2358 58.8749H95.6177C95.8427 58.8749 96.4358 58.8929 97.3668 58.9449L97.9738 56.7749H90.6098C89.3258 61.7619 88.1728 65.7259 87.1858 68.6479ZM95.8488 68.6479H100.399C103.617 68.6479 106.195 66.1909 107.165 62.2459C107.685 60.1289 107.478 58.5329 106.659 57.6009C105.97 56.8119 105.021 56.7749 103.764 56.7749H99.2738C97.9458 61.9409 96.7778 65.9039 95.8488 68.6479ZM98.7548 66.5679L98.9218 65.8859C99.0758 65.2589 99.2358 64.6669 99.4008 64.0579L100.873 58.8569H102.698C103.701 58.8569 104.389 58.8569 104.77 59.3769C105.183 59.9509 105.236 60.9549 104.892 62.3539C104.508 63.9149 103.769 65.0979 102.746 65.8519C101.781 66.5509 100.924 66.5689 99.8148 66.5689L98.7548 66.5679ZM106.733 68.6479H114.096L114.747 66.2979C113.624 66.4249 112.353 66.4779 110.933 66.4779C110.409 66.4779 109.95 66.4599 109.535 66.4429L109.597 66.1909C109.725 65.6709 109.874 65.1869 110.018 64.7199L110.397 63.4839H113.674C114.138 63.4839 114.617 63.4839 115.082 63.5369L115.692 61.2949C115.136 61.3669 114.583 61.3669 114.013 61.3669H110.991L111.318 60.2189C111.489 59.6449 111.629 59.1979 111.783 58.8749H115.165C115.39 58.8749 115.983 58.8929 116.913 58.9449L117.52 56.7749H110.158C108.873 61.7619 107.72 65.7259 106.733 68.6479ZM126.213 59.0349L126.678 56.7749C125.72 56.5949 124.934 56.5069 124.32 56.5069C120.399 56.5069 117.756 58.8019 116.729 62.9819C115.783 66.8369 117.142 68.9179 120.749 68.9179C121.617 68.9179 122.516 68.7929 123.434 68.6479L124.262 66.1909C123.293 66.4779 122.42 66.6229 121.642 66.6229C119.233 66.6229 118.281 65.2599 118.911 62.6949C119.563 60.0389 121.273 58.4979 123.578 58.4979C124.624 58.4979 125.499 58.7129 126.213 59.0349ZM130.686 56.7749H128.366C127.029 61.9759 125.861 65.9409 124.927 68.6479H127.277C127.43 67.9679 127.575 67.3769 127.69 66.9099C127.778 66.5509 127.848 66.2639 127.924 66.0139L129.884 59.2519C130.107 58.4629 130.384 57.6369 130.686 56.7749ZM135.006 68.6479H138.462C138.581 68.1639 138.677 67.7159 138.769 67.3389C138.906 66.7819 139.027 66.3529 139.125 66.0129L141.069 59.2509C141.293 58.4619 141.57 57.6359 141.872 56.7739H139.821C139.764 57.0079 139.721 57.2409 139.669 57.4559C139.484 58.2099 139.287 58.8919 139.094 59.5559L137.063 66.7299L135.827 56.7749H132.534C131.008 62.2629 129.885 66.2279 129.035 68.6479H131.086C131.369 67.5539 131.688 66.3179 132.083 64.9549L133.896 58.6049L134.709 65.3489C134.841 66.5149 134.981 67.5919 135.006 68.6479ZM143.179 62.4979L144.846 64.6679C145.127 65.0449 145.225 65.4389 145.146 65.7619C144.97 66.4789 144.272 66.9459 143.254 66.9459C142.551 66.9459 141.623 66.6409 140.573 65.9769L140.13 68.2739C140.625 68.6309 141.617 68.9189 142.919 68.9189C145.148 68.9189 146.768 67.6279 147.222 65.7799C147.499 64.6509 147.206 63.7719 146.436 62.7659L144.616 60.3639C144.46 60.1489 144.422 59.8799 144.492 59.5929C144.672 58.8589 145.355 58.3919 146.448 58.3919C147.076 58.3919 147.712 58.6069 148.451 58.9469L148.851 56.8319C148.012 56.6519 147.215 56.5449 146.437 56.5449C144.252 56.5449 142.866 57.6209 142.416 59.4489C142.117 60.6679 142.398 61.4739 143.179 62.4979ZM63.4348 77.5879L65.0988 79.7379C65.3798 80.1129 65.4768 80.5039 65.3978 80.8239C65.2218 81.5349 64.5248 81.9979 63.5098 81.9979C62.8078 81.9979 61.8818 81.6949 60.8348 81.0369L60.3918 83.3119C60.8868 83.6669 61.8768 83.9529 63.1758 83.9529C65.4008 83.9529 67.0168 82.6739 67.4698 80.8419C67.7468 79.7209 67.4538 78.8499 66.6848 77.8539L64.8698 75.4709C64.7138 75.2579 64.6748 74.9909 64.7448 74.7069C64.9248 73.9769 65.6068 73.5139 66.6968 73.5139C67.3238 73.5139 67.9588 73.7289 68.6968 74.0669L69.0958 71.9669C68.2588 71.7889 67.4628 71.6839 66.6868 71.6839C64.5058 71.6839 63.1228 72.7499 62.6738 74.5649C62.3758 75.7729 62.6558 76.5739 63.4348 77.5879ZM83.6488 83.6869H87.0988C87.2178 83.2069 87.3128 82.7609 87.4048 82.3879C87.5418 81.8369 87.6618 81.4089 87.7598 81.0719L89.7008 74.3689C89.9238 73.5859 90.2008 72.7669 90.5018 71.9139H88.4558C88.3988 72.1439 88.3568 72.3769 88.3038 72.5899C88.1188 73.3379 87.9217 74.0119 87.7297 74.6699L85.7028 81.7829L84.4678 71.9139H81.1818C79.6578 77.3549 78.5368 81.2849 77.6898 83.6869H79.7358C80.0188 82.6009 80.3368 81.3739 80.7308 80.0229L82.5408 73.7279L83.3528 80.4139C83.4848 81.5699 83.6238 82.6369 83.6488 83.6869ZM91.8058 77.5879L93.4698 79.7379C93.7508 80.1129 93.8478 80.5039 93.7688 80.8239C93.5928 81.5349 92.8958 81.9979 91.8808 81.9979C91.1788 81.9979 90.2538 81.6949 89.2058 81.0369L88.7628 83.3119C89.2578 83.6669 90.2468 83.9529 91.5468 83.9529C93.7718 83.9529 95.3878 82.6739 95.8398 80.8419C96.1168 79.7209 95.8238 78.8499 95.0548 77.8539L93.2398 75.4709C93.0838 75.2579 93.0448 74.9909 93.1148 74.7069C93.2948 73.9769 93.9768 73.5139 95.0668 73.5139C95.6938 73.5139 96.3288 73.7289 97.0658 74.0669L97.4647 71.9669C96.6278 71.7889 95.8328 71.6839 95.0558 71.6839C92.8758 71.6839 91.4918 72.7499 91.0428 74.5649C90.7458 75.7729 91.0258 76.5739 91.8058 77.5879ZM100.47 83.6869H102.726C102.821 83.2419 102.926 82.8139 103.032 82.3879C103.261 81.4619 103.502 80.6089 103.749 79.7919L104.127 78.5629H106.815C107.278 78.5629 107.741 78.5629 108.206 78.6179L108.83 76.3929C108.353 76.4479 107.797 76.4649 107.154 76.4649H104.72L105.046 75.3259C105.216 74.7579 105.356 74.3119 105.51 73.9919H108.288C108.512 73.9919 109.104 74.0099 110.032 74.0639L110.654 71.9119H103.887C102.607 76.8569 101.455 80.7889 100.47 83.6869ZM108.369 83.6869H110.684C111.252 81.5699 111.562 80.3779 111.647 80.0929L112.926 75.5229C113.09 74.9189 113.286 74.3689 113.503 73.8529C113.975 73.8159 114.412 73.7979 114.785 73.7979C116.175 73.7979 116.719 74.0109 116.429 75.1849C116.13 76.3939 115.245 77.0169 113.766 77.0169C113.483 77.0169 113.203 76.9989 112.917 76.9469L113.656 83.6869H116.001C115.709 81.9079 115.482 80.1659 115.292 78.4579C117.008 77.7999 118.085 76.6439 118.48 75.0439C118.828 73.6379 118.596 72.6419 117.955 72.2159C117.532 71.9309 116.939 71.9129 116.192 71.9129H111.786C110.462 77.0349 109.296 80.9669 108.369 83.6869ZM122.669 83.9349C126.164 83.9349 128.887 81.4989 129.858 77.5679C130.79 73.7979 129.331 71.6659 125.702 71.6659C122.207 71.6659 119.484 74.1019 118.508 78.0489C117.581 81.8029 119.055 83.9349 122.669 83.9349ZM120.753 78.0309C121.439 75.2579 123.023 73.7459 125.203 73.7459C127.383 73.7459 128.214 75.0979 127.599 77.5879C126.909 80.3789 125.315 81.8729 123.075 81.8729C121.013 81.8729 120.151 80.4689 120.753 78.0309ZM135.458 83.6869H138.908C139.026 83.2069 139.121 82.7609 139.214 82.3879C139.351 81.8369 139.471 81.4089 139.569 81.0719L141.509 74.3689C141.733 73.5859 142.009 72.7669 142.31 71.9139H140.264C140.206 72.1439 140.164 72.3769 140.112 72.5899C139.927 73.3379 139.731 74.0119 139.538 74.6699L137.512 81.7829L136.278 71.9139H132.992C131.468 77.3549 130.346 81.2849 129.5 83.6869H131.546C131.829 82.6009 132.148 81.3739 132.541 80.0229L134.351 73.7279L135.163 80.4139C135.294 81.5699 135.434 82.6369 135.458 83.6869ZM147.509 73.7989C147.812 73.7809 148.111 73.7809 148.424 73.7809C149.096 73.7809 149.76 73.8159 150.429 73.8879L151.007 71.9129H143.136L142.543 73.8879C143.308 73.8159 144.048 73.7809 144.735 73.7809C144.973 73.7809 145.213 73.7809 145.447 73.7989C144.556 77.1599 143.545 80.4689 142.421 83.6879H144.751C144.819 83.3499 144.907 82.9949 145 82.6199C145.185 81.8739 145.41 81.0199 145.688 80.0769L147.509 73.7989ZM154.229 71.9139H151.914C150.58 77.0719 149.414 81.0019 148.481 83.6869H150.826C150.978 83.0109 151.124 82.4229 151.238 81.9599C151.326 81.6049 151.396 81.3209 151.472 81.0709L153.428 74.3679C153.652 73.5859 153.928 72.7669 154.229 71.9139ZM152.566 83.6869H159.915L160.565 81.3569C159.444 81.4819 158.176 81.5349 156.757 81.5349C156.235 81.5349 155.776 81.5169 155.361 81.4999L155.423 81.2499C155.551 80.7339 155.699 80.2539 155.843 79.7929L156.222 78.5639H159.493C159.956 78.5639 160.434 78.5639 160.899 78.6189L161.507 76.3939C160.952 76.4659 160.4 76.4659 159.832 76.4659H156.814L157.14 75.3269C157.311 74.7589 157.451 74.3129 157.605 73.9929H160.98C161.204 73.9929 161.797 74.0109 162.724 74.0649L163.33 71.9129H155.982C154.703 76.8569 153.551 80.7889 152.566 83.6869ZM161.198 83.6869H163.513C164.08 81.5699 164.39 80.3779 164.476 80.0929L165.754 75.5229C165.919 74.9189 166.114 74.3689 166.332 73.8529C166.804 73.8159 167.241 73.7979 167.614 73.7979C169.003 73.7979 169.548 74.0109 169.258 75.1849C168.959 76.3939 168.073 77.0169 166.595 77.0169C166.312 77.0169 166.032 76.9989 165.746 76.9469L166.484 83.6869H168.829C168.537 81.9079 168.311 80.1659 168.121 78.4579C169.837 77.7999 170.914 76.6439 171.309 75.0439C171.656 73.6379 171.424 72.6419 170.783 72.2159C170.361 71.9309 169.767 71.9129 169.021 71.9129H164.615C163.29 77.0349 162.124 80.9669 161.198 83.6869ZM170.002 83.6869H177.351L178.001 81.3569C176.88 81.4819 175.612 81.5349 174.193 81.5349C173.671 81.5349 173.212 81.5169 172.797 81.4999L172.859 81.2499C172.987 80.7339 173.135 80.2539 173.28 79.7929L173.658 78.5639H176.929C177.392 78.5639 177.87 78.5639 178.335 78.6189L178.943 76.3939C178.388 76.4659 177.836 76.4659 177.268 76.4659H174.251L174.576 75.3269C174.747 74.7589 174.887 74.3129 175.041 73.9929H178.416C178.64 73.9929 179.233 74.0109 180.161 74.0649L180.767 71.9129H173.418C172.139 76.8569 170.988 80.7889 170.002 83.6869ZM181.651 77.5879L183.315 79.7379C183.596 80.1129 183.693 80.5039 183.614 80.8239C183.438 81.5349 182.741 81.9979 181.726 81.9979C181.024 81.9979 180.098 81.6949 179.05 81.0369L178.607 83.3119C179.102 83.6669 180.092 83.9529 181.391 83.9529C183.617 83.9529 185.233 82.6739 185.685 80.8419C185.962 79.7209 185.669 78.8499 184.901 77.8539L183.086 75.4709C182.93 75.2579 182.891 74.9909 182.961 74.7069C183.141 73.9769 183.823 73.5139 184.913 73.5139C185.54 73.5139 186.175 73.7289 186.912 74.0669L187.311 71.9669C186.474 71.7889 185.679 71.6839 184.902 71.6839C182.722 71.6839 181.339 72.7499 180.89 74.5649C180.591 75.7729 180.87 76.5739 181.651 77.5879Z" fill="black"/>
</g>
<defs>
<clipPath id="clip0_14_10">
<rect width="187.194" height="85.5654" fill="white"/>
</clipPath>
</defs>
</svg>
