<svg width="220" height="65" fill="none" xmlns="http://www.w3.org/2000/svg"><path d="M126.712 41.944c-1.8 2.9-3.7 5.7-5.6 8.5h2.5l1.5-2.5h2.6l.1 2.5h2.4c-.3-2.8-.6-5.7-.8-8.5h-2.7Zm-.7 4.3 1.5-2.4.1 2.4h-1.6ZM142.912 44.244c.1-.4.8-.6 1.1-.6.7 0 1.1.2 1.5.4 0 0 .4-1.7.4-1.8-.7-.4-1.5-.5-2-.5-2 0-3 1.2-3.2 2.2-.4 2 2 3.1 1.7 4-.2.7-.8.7-1.2.7-.6 0-1.2-.2-1.8-.5l-.5 2c.6.2 1.5.4 2.3.4 2.3 0 3.1-1.1 3.3-2.2.5-1.9-1.9-3-1.6-4.1ZM120.112 44.244c.1-.4.8-.6 1.1-.6.7 0 1.1.2 1.5.4 0 0 .6-1.6.6-1.7-.7-.5-1.6-.6-2.1-.6-2 0-3 1.2-3.2 2.2-.4 2 2 3.1 1.7 4-.2.7-.8.7-1.2.7-.6 0-1.2-.2-1.8-.5l-.5 2c.6.2 1.6.4 2.3.4 2.3 0 3.1-1.1 3.3-2.2.4-1.9-2-3-1.7-4.1ZM178.312 47.444h-.1l-1.3-5.5h-2.6l-2.2 8.5h2l1.3-5.4h.1l1.3 5.4h2.7l2.1-8.5h-1.9l-1.4 5.5ZM153.212 43.744h3.3l.4-1.8h-5.5l-2.1 8.5h2.2l.9-3.4h2.7l.4-1.8h-2.7l.4-1.5ZM188.812 41.944h-6.4l-.4 1.8h2l-1.7 6.7h2.3l1.7-6.7h2l.5-1.8ZM189.612 41.944l-2.2 8.5h2.2l2.2-8.5h-2.2ZM196.912 47.044l.5-1.8h-2.8l.3-1.5h3.6l.5-1.8h-5.8l-2.2 8.5h5.8l.4-1.8h-3.5l.4-1.6h2.8ZM211.312 47.044l.5-1.8h-2.9l.4-1.5h3.5l.5-1.8h-5.8l-2.2 8.5h5.8l.5-1.8h-3.6l.4-1.6h2.9ZM169.212 41.844c-2.5 0-4.7 1.6-5.4 4.4-.7 2.8.6 4.4 3.1 4.4 2.4 0 4.6-1.4 5.4-4.2.8-3-.6-4.6-3.1-4.6Zm.9 4.4c-.4 1.4-1.4 2.6-2.7 2.6-1.4 0-1.7-1.2-1.4-2.5.3-1.3 1.3-2.6 2.7-2.6 1.3-.1 1.7 1.1 1.4 2.5ZM216.012 44.244c.1-.4.8-.6 1.1-.6.7 0 1.1.2 1.5.4 0 0 .4-1.7.4-1.8-.7-.4-1.5-.5-2-.5-2 0-3 1.2-3.2 2.2-.4 2 2 3.1 1.7 4-.2.7-.8.7-1.2.7-.6 0-1.2-.2-1.8-.5l-.5 2c.6.2 1.5.4 2.3.4 2.3 0 3.1-1.1 3.3-2.2.5-1.9-2-3-1.6-4.1ZM161.412 46.744c1.1-.2 2-1.2 2.3-2.2.4-1.7-.1-2.6-1.9-2.6h-3.8l-2.2 8.5h2.1l1.7-6.7h1.1c.3 0 1 0 .8.9-.2.7-.7 1.1-1.7 1.1H159.012l.8 4.7h2.4s-.8-3.5-.8-3.7ZM203.612 46.744c1.1-.2 2-1.2 2.3-2.2.4-1.7-.1-2.6-2-2.6h-3.8l-2.2 8.5h2.1l1.7-6.7h1.1c.3 0 1 0 .8.9-.2.7-.7 1.1-1.7 1.1H201.112l.8 4.7h2.4c.1 0-.7-3.5-.7-3.7ZM85.712 50.444l.5-1.8h-3.6l.4-1.5h2.9l.5-1.9h-2.9l.4-1.5h3.5l.5-1.8h-5.8l-2.2 8.5h5.8ZM70.712 50.444l.4-1.8h-3.5l.4-1.5h2.8l.5-1.9h-2.9l.4-1.5h3.6l.4-1.8h-5.8l-2.1 8.5h5.8ZM90.612 50.644c.4 0 1.5-.1 2.2-.2l.5-2c-.7.2-1.3.3-2.2.3-1.4 0-1.7-1.2-1.4-2.5.3-1.1 1.3-2.6 3.1-2.6.6 0 1.1.2 1.6.3l.5-1.9c-.5-.2-1.4-.3-2-.3-2.6 0-4.7 1.6-5.5 4.4-.7 2.9.6 4.5 3.2 4.5ZM96.112 50.444l2.2-8.5h-2.3l-2.2 8.5h2.3ZM58.312 44.344l-.1 6.1h1.9l3-6.1h.1l-1.6 6.1h1.9l2.2-8.5h-3l-2.6 5.4h-.1l.2-5.4h-3.2l-2.2 8.5h1.9l1.6-6.1ZM99.412 50.444l1.4-5.4 1.4 5.4h2.6l2.2-8.5h-2l-1.4 5.6-1.3-5.6h-2.7l-2.2 8.5h2ZM80.112 46.244c.9-3.6-1-4.3-2.1-4.3h-4l-2.2 8.5h3.6c2.5 0 4.1-1.8 4.7-4.2Zm-2.2 0c-.3 1.3-1.2 2.4-2.5 2.4h-1l1.2-4.9h1.1c1.3 0 1.6.9 1.2 2.5ZM109.812 44.244c.1-.4.8-.6 1.1-.6.7 0 1.1.2 1.5.4 0 0 .4-1.7.4-1.8-.7-.4-1.5-.5-2-.5-2 0-3 1.2-3.2 2.2-.4 2 2 3.1 1.7 4-.2.7-.8.7-1.2.7-.6 0-1.2-.2-1.8-.5l-.5 2c.6.2 1.6.4 2.3.4 2.3 0 3.1-1.1 3.3-2.2.5-1.9-1.9-3-1.6-4.1Z" fill="#000"/><path d="M10.812 30.544c0 .1.2.1.3.1.1 0 .2.1.2.1h.2c.1.1.1.2.2.3.1.1.1.3.2.3s.2 0 .3.1v.4c.2.3 0 1.3.2 1.3.2.1.7-.1.8-.3.2-.2.4-.4.6-.5.3-.1.8-.4 1-.4.2 0 .4-.4.6-.5.2 0 .2-.2.3-.3.2-.1.5-.2.6-.1 0 0 .1.2.3.2.2.1.4 0 .4.2 0 .3.5 0 .5 0s.6-.4.8-.5c.2-.1.9-.4.9-.4s.5-.3.7-.4c7.5-3.6 13.5-5.6 18.9-7.7 8.5-3.3 23.2-7 25.9-7.7.3-.1.9-.2 1-.2.1 0 .2-.1.3-.3.1-.3-.1-.6-.1-.8 0-.1.3-.7.3-.9 0-.2-.2-.3-.2-.3v-.5c-.1-.2-.4-.4-.5-.6-.1-.2 0-.7-.1-.8-.1-.2-.3-.3-.3-.3v-.2c0-.1-.2-.1-.2-.1s.1-.3 0-.4c0-.1-.2-.2-.2-.2s-.2-.1-.2-.3c0-.1 0-.2-.1-.3-.1-.1-.4-.1-.5-.1-.1 0-.3-.1-.5-.1s-.2.2-.7.3c-.5.1-.7 0-.9 0-.2 0-.4.2-.7.2-2.3.6-12.7 3.6-20.4 6.5-7.1 2.7-15.6 6.6-20.8 9.2-3.9 2-6 3.2-6.9 3.8-.4.3-.9.6-1 .7-.1.2-.3.5-.5.5-.3 0-.3.2-.4.2-.1 0-.3.2-.4.3 0 .3 0 .4.1.5ZM43.212 25.844c-.3-.2-.2-.4.2-.6 2.5-1.1 8.8-3.3 12.4-4.4 3.1-1 11.6-3.7 13.9-4.4.6-.2.8-.2 1 .1.6.7 1.3 1.6 1.8 2.7s1 2.6 1.2 3.5c.1.7-.2.8-.6 1-2.6 1.2-9.1 4-11.8 5.3-2.6 1.2-7.4 3.6-9.1 4.4-.7.3-.6.5-1 0-.1-.2-.4-.5-.4-.6-.1-.1-1-.9-1.1-1-.1-.1-.6-.7-.7-.8-.1-.1-.6-.7-.7-.8-.1-.1-.4-.2-.5-.3l-.4-.4-.3-.3-.3-.3-.3-.3s-.2-.3-.4-.4c-.2-.1-.4-.3-.5-.4-.1-.1-.6-.8-.9-.9-.3-.2-.9-.6-1-.7 0-.1-.2-.2-.5-.4ZM23.112 55.144c.6-.4 2-1.1 2.2-1.2.3-.2.4-.1.4-.1 0 .3 0 1 .4 1.1.1 0 .4-.1.5 0 .1.2.2.2.2.2 0 .1.2 0 .3.1.1.1 0 .2.1.3.1.1.3-.1.4-.1.2 0 .2.2.2.4-.1.2.1.4.4.1.2-.2.2-.1.4-.2h.3c.1.1.2.2.3.2.1.1.3 0 .4 0 .1.1.1.3.3.3.1 0 .2-.2.3-.1.2.2-.2.5.1.6.1 0 .2-.1.3-.1.1 0 .2-.2.3-.2.1 0 .2.1.3 0 .1-.1.2-.1.3-.2.1-.1.3 0 .4-.1.1-.1 0-.3.3-.2.3.1 0 .3.1.4.1.1.4 0 .4 0 .2-.1.3-.3.4-.4.1-.2.3-.7.4-.9.1-.2.4-.7.5-.9.1-.2.7-1.1.7-1.2 0-.1.2-.3.3-.4.1-.1.2-.4.3-.7.1-.3.5-.8.5-.9 0-.1.3-.8.4-1 .1-.2.5-.7.5-.9.1-.2.3-.7.3-.7l.3-.4.2-.4c.1-.3.5-.8.6-1 .1-.2.4-.6.4-.6l.2-.5.2-.4s.1-.4.2-.6c.1-.1.3-.4.4-.6.1-.2.3-.8.4-1 .1-.2.6-1.1.6-1.2 0-.2.5-1.1.6-1.3 0-.2.1-.4.1-.6.1-.1.3-.4.3-.5 0-.1.4-.9.4-1 .1-.1.1-.3.2-.3s.2.1.3.3c.1.1.3.1.4.2.1.1.5.5.5.6 0 .1.2.1.3.2 0 .1.1.2.2.3.1 0 .4.3.5.4.1.1.1.3.2.4.1.1.5.3.5.4 0 .1.6.8.7.9.1.1.1.3.2.4.1.1.3.2.3.3 0 .1 0 .4.1.5 0 .1.3.2.3.3 0 .1.1.4.2.5.1 0 .1.1.2.2 0 .1.1.4.1.5 0 .1.2.4.3.5.1.1.2.3.3.4 0 .1 0 .4.1.5 0 .1.2.4.2.4 0 .1.1.3.1.3l.1.3s.2.3.2.4v.3c0 .1.2.3.2.4 0 .1.2.5.2.5v.4c0 .1.2.3.2.4v.3l.1.1v.5c0 .1.2.4.2.4-.1.1-7.1 3.3-10.1 4.7-4.3 2-13.2 6.5-14.2 7s-1.6.9-1.8.7c-.5-.3-1.4-1-2-2.7-.5-1.4-.5-2.5-.5-3.1 0-.4 0-.8.7-1.2-.1.4 1.1-.3 1.7-.7ZM16.612 46.344s-3.3 1.1-4.6 1.6c-1.2.4-2.6.9-3.5 1.3-1.1.5-3.1 1.3-3.6 1.4-.7.3-1 .1-1.2-.3-.2-.4-.7-1.3-.9-2.4-.3-1.1-.4-2-.4-2.3 0-.3.3-.9.7-1.1.4-.2 1.4-.8 2.1-1.2 1.5-.8 6.5-3.5 9.5-5.1 3.2-1.7 8.2-4.1 10.9-5.4 2.7-1.3 7.1-3.4 7.7-3.7.5-.2 1.1-.5 1.4-.5.3 0 .2.1.2.2s-.1.1-.1.3c0 .2 0 .4-.1.6-.1.2-.2.4-.3.5 0 .1-.1.6-.2.8-.1.2-.6 1.1-.7 1.5-.1.4-.3 1.1-.4 1.3l-.5 1c0 .2-.2.7-.3.9-.1.2-.5.9-.5 1.1-.1.1-.3 1-.4 1.2-.1.1-.3.5-.3.5l-.1.6s-.4.5-.4.6c0 .1-.3 1-.4 1.2-.1.2-.8 1.6-.9 2.1-.1.5-.4 1.2-.4 1.4l-.5 1c-.1.2-.4 1.2-.5 1.4-.1.2-.4.8-.4 1 0 .2-.2.6-.4 1s-.4 1-.5 1.2c-.1.2-.2.4-.3.5 0 .1-.1.5-.1.6 0 .1-.1.3-.1.3-.2.1-9.1 3.9-10.4 4.5-1.3.6-10.4 4.9-11 5.2-.6.3-1.3.8-1.9.5-.7-.5-1.4-1.5-1.9-2.4-.4-.8-.8-2-.9-2.9-.1-1.2.4-1.4 2.1-2.3.8-.5 7.4-3.9 9.5-5 .7-.5 5-2.7 5-2.7Z" fill="#E30613"/><path d="m138.112 41.944-1.4 5.6-1.3-5.6h-2.7l-2.2 8.5h2l1.4-5.4 1.4 5.4h2.6l2.2-8.5h-2Z" fill="#000"/><path d="M39.112 13.344c-.3 0-.6 0-.7-.1 0-.1 0-.1-.1-.2s-.2-.1-.3 0c-.1 0 0 0-.1.1-.1 0-.5-.1-.7-.1-.1.1-.5.1-.6 0-.1-.1-.1-.3-.3-.4-.1 0-.4-.2-.5-.4-.1-.2-.4-.4-.4-.6-.1-.1-.1-.3-.2-.4 0-.1-.1-.3-.2-.4l-.2-.2c-.1-.1-.1-.3-.2-.4 0-.1-.1-.2-.1-.2 0-.1 0-.2-.1-.3 0-.1-.2-.2-.2-.3 0-.1-.1-.7-.1-1.1 0-.5 0-.8.1-1 0-.2.1-.4.2-.5 0-.2.3-.8.3-1.1.1-.3.2-.8.3-1 .1-.2.3-.7.4-.9.1-.2.5-.7.6-.9.1-.2.8-.9 1-1 .2-.1.5-.4.7-.5.1-.1.6-.4.7-.5.1-.1.3-.1.3-.1l.2-.2.2-.2c.1-.1.3-.1.3-.1s.2-.2.5-.1c.1 0 .2-.2.3-.2.1 0 .5-.1.5 0 .1.1.1.1.3.2h.5c.1 0 .2.2.3.2.1 0 1 .9 1.1 1.1 0 .1.1.2.1.3 0 .1.2.2.2.4s.2.2.3.5c0 .2.3.3.4.6 0 .1.1.4.1.4 0 .1.1.1.1.2s.1.3.1.4c0 .1.2.7.2 1 0 .3-.1.7-.2.9-.1.2 0 .7-.1.9 0 .2-.2.6-.2.8 0 .1-.4 1.1-.5 1.2-.1.1-.3.5-.4.7-.1.1-.9 1.2-1 1.3-.1.1-.5.4-.5.5-.1.1-.2.3-.3.5-.2.2-.4.1-.5.2-.1.2-.4.3-.5.4-.1.2-.2.4-.3.5-.2 0-.6.1-.8.1ZM52.712 35.044c-.3-.3.1-.3.4-.4 1.1-.4 7.6-2.5 13.3-4 5.7-1.5 13.9-3.2 15.1-3.4.5-.1.7 0 1 .4.3.5.9 2.1 1.2 3.4.3 1.7 0 3.3-.1 3.7-.1.3-.6.4-1.7.7-.7.2-3.5.9-4.7 1.2-1.3.4-4.9 1.4-6.2 1.9-1.6.5-3.7 1.2-3.7 1.2l-11.3.2s-.2-.8-.3-.8c-.1-.1-.3-.4-.4-.5-.1-.1-.2-.5-.2-.5s-.1-.4-.2-.5c-.1-.1-.3-.6-.4-.7-.1-.1-.3-.4-.4-.5-.1-.1-.2-.3-.3-.4-.2-.1-.4-.4-.5-.5-.2-.1-.3-.3-.6-.5Z" fill="#E30613"/><path d="M53.812 52.844h163.9" stroke="#E30613" stroke-width=".496"/><path d="m78.812 64.444 2.1-8.5h-2.2l-2.2 8.5h2.3ZM55.012 58.344l-.1 6.1h1.9l3-6.1-1.5 6.1h1.9l2.2-8.5h-3l-2.7 5.3.1-5.3h-3.1l-2.2 8.5h1.9l1.6-6.1ZM83.912 64.544c.4 0 1.5-.1 2.2-.2l.5-2c-.7.2-1.3.3-2.2.3-1.4 0-1.7-1.2-1.4-2.5.3-1.1 1.3-2.6 3.1-2.6.6 0 1.1.2 1.6.3l.5-1.9c-.5-.2-1.4-.3-2-.3-2.6 0-4.7 1.6-5.5 4.4-.7 3 .6 4.5 3.2 4.5ZM93.112 55.744c-2.5 0-4.7 1.6-5.4 4.4-.7 2.8.6 4.4 3.1 4.4 2.4 0 4.6-1.4 5.3-4.2.9-2.9-.5-4.6-3-4.6Zm.9 4.4c-.4 1.4-1.4 2.5-2.7 2.5-1.4 0-1.7-1.2-1.4-2.5.3-1.3 1.3-2.6 2.7-2.6 1.3.1 1.7 1.3 1.4 2.6ZM67.312 64.444l.5-1.8h-3.6l.4-1.6h2.9l.5-1.8h-2.9l.4-1.5h3.5l.5-1.8h-5.8l-2.2 8.5h5.8ZM66.712 53.844h1.9l-1.3 1.3h-1.5l.9-1.3ZM76.812 60.144c.9-3.6-1-4.3-2.1-4.3h-4l-2.2 8.5h3.6c2.4.1 4.1-1.7 4.7-4.2Zm-2.2 0c-.3 1.3-1.2 2.4-2.5 2.4h-1l1.2-4.9h1.1c1.3.1 1.6.9 1.2 2.5ZM99.712 58.244c.1-.4.8-.6 1.1-.6.7 0 1.1.2 1.5.4 0 0 .4-1.7.4-1.8-.7-.4-1.5-.5-2-.5-2 0-3 1.2-3.2 2.2-.4 2 2 3.1 1.7 4-.2.7-.8.7-1.2.7-.6 0-1.2-.2-1.8-.5l-.5 2c.6.2 1.5.4 2.3.4 2.3 0 3.1-1.1 3.3-2.2.5-2-1.9-3-1.6-4.1ZM145.212 60.644c1.1-.2 2-1.2 2.3-2.2.4-1.7-.1-2.6-1.9-2.6h-3.8l-2.2 8.5h2.1l1.7-6.7h1.1c.3 0 1 0 .8.9-.2.7-.7 1.1-1.7 1.1H142.812l.8 4.7h2.4c0 .1-.8-3.5-.8-3.7ZM153.012 55.744c-2.5 0-4.7 1.6-5.4 4.4-.7 2.8.6 4.4 3.1 4.4 2.4 0 4.6-1.4 5.4-4.2.8-2.9-.6-4.6-3.1-4.6Zm.9 4.4c-.4 1.4-1.4 2.6-2.7 2.6-1.4 0-1.7-1.2-1.4-2.5.3-1.3 1.3-2.6 2.7-2.6 1.3 0 1.7 1.2 1.4 2.5ZM163.512 55.944l-1.4 5.5h-.1l-1.3-5.5h-2.6l-2.2 8.5h2l1.3-5.5h.1l1.3 5.5h2.7l2.1-8.5h-1.9ZM166.212 55.944l-.4 1.8h2l-1.7 6.7h2.3l1.7-6.7h2l.5-1.8h-6.4ZM173.512 55.944l-2.2 8.5h5.8l.5-1.8h-3.5l.4-1.6h2.8l.4-1.8h-2.8l.4-1.5h3.6l.4-1.8h-5.8ZM180.512 55.944l-2.2 8.5h2.2l2.2-8.5h-2.2ZM187.312 60.644c1.1-.2 2-1.2 2.3-2.2.4-1.7-.1-2.6-1.9-2.6h-3.8l-2.2 8.5h2.1l1.7-6.7h1.1c.3 0 1 0 .8.9-.2.7-.7 1.1-1.7 1.1h-.7l.8 4.7h2.4c0 .1-.8-3.5-.9-3.7ZM193.812 55.944c-1.8 2.9-3.7 5.7-5.6 8.5h2.5l1.5-2.5h2.6l.1 2.5h2.4c-.3-2.8-.6-5.7-.8-8.5h-2.7Zm-.7 4.2 1.5-2.4.1 2.4h-1.6ZM201.712 58.244c.1-.4.8-.6 1.1-.6.7 0 1.1.2 1.5.4 0 0 .4-1.7.4-1.8-.7-.4-1.5-.5-2-.5-2 0-3 1.2-3.2 2.2-.4 2 2 3.1 1.7 4-.2.7-.8.7-1.2.7-.6 0-1.2-.2-1.8-.5l-.5 2c.6.2 1.5.4 2.3.4 2.3 0 3.1-1.1 3.3-2.2.5-2-1.9-3.1-1.6-4.1ZM110.012 58.244c.1-.4.8-.6 1.1-.6.7 0 1.1.2 1.5.4 0 0 .4-1.7.4-1.8-.7-.4-1.5-.5-2-.5-2 0-3 1.2-3.2 2.2-.4 2 2 3.1 1.7 4-.2.7-.8.7-1.2.7-.6 0-1.2-.2-1.8-.5l-.5 2c.6.2 1.5.4 2.3.4 2.3 0 3.1-1.1 3.3-2.2.5-2-1.9-3-1.6-4.1ZM114.212 55.944l-2.1 8.5h5.8l.4-1.8h-3.5l.4-1.6h2.8l.5-1.8h-2.9l.4-1.5h3.6l.4-1.8h-5.8ZM126.912 55.944l-2.6 5.3h-.1l.2-5.3h-3.2l-2.2 8.5h1.9l1.6-6.1-.1 6.1h1.9l3.1-6.1-1.6 6.1h1.9l2.2-8.5h-3ZM135.212 55.944l-2.1 8.5h2.2l.9-3.4h2.7l.4-1.8h-2.7l.4-1.5h3.3l.4-1.8h-5.5Z" fill="#000"/></svg>