<svg width="550" height="413" viewBox="0 0 550 413" fill="none" xmlns="http://www.w3.org/2000/svg">
<g clip-path="url(#clip0_2_26)">
<path d="M70.9273 200.564C70.9273 201.22 72.2393 201.22 72.8953 201.22C73.5513 201.22 74.2073 201.877 74.2073 201.877H75.5193C76.1753 202.533 76.1753 203.19 76.8313 203.847C77.4873 204.503 77.4873 205.817 78.1433 205.817C78.7993 205.817 79.4553 205.817 80.1113 206.473V209.1C81.4233 211.07 80.1113 217.636 81.4233 217.636C82.7352 218.293 86.0152 216.979 86.6712 215.666C87.9832 214.353 89.2952 213.04 90.6072 212.383C92.5752 211.726 95.8552 209.756 97.1671 209.756C98.4791 209.756 99.7911 207.13 101.103 206.473C102.415 206.473 102.415 205.16 103.071 204.503C104.383 203.847 106.351 203.19 107.007 203.847C107.007 203.847 107.663 205.16 108.975 205.16C110.287 205.817 111.599 205.16 111.599 206.473C111.599 208.443 114.879 206.473 114.879 206.473C114.879 206.473 118.815 203.847 120.127 203.19C121.439 202.533 126.031 200.564 126.031 200.564C126.031 200.564 129.311 198.594 130.623 197.937C179.823 174.298 219.182 161.166 254.606 147.377C310.366 125.708 406.797 101.413 424.509 96.8163C426.477 96.1596 430.413 95.503 431.069 95.503C431.725 95.503 432.381 94.8464 433.037 93.5331C433.693 91.5632 432.381 89.5933 432.381 88.2801C432.381 87.6234 434.349 83.6837 434.349 82.3704C434.349 81.0572 433.037 80.4005 433.037 80.4005V77.1174C432.381 75.8041 430.413 74.4909 429.757 73.1776C429.101 71.8644 429.757 68.5812 429.101 67.9246C428.445 66.6113 427.133 65.9547 427.133 65.9547V64.6414C427.133 63.9848 425.821 63.9848 425.821 63.9848C425.821 63.9848 426.477 62.0149 425.821 61.3583C425.821 60.7017 424.509 60.045 424.509 60.045C424.509 60.045 423.197 59.3884 423.197 58.0752C423.197 57.4185 423.197 56.7619 422.541 56.1053C421.885 55.4486 419.917 55.4486 419.261 55.4486C418.605 55.4486 417.293 54.792 415.981 54.792C414.669 54.792 414.669 56.1053 411.389 56.7619C408.109 57.4185 406.797 56.7619 405.485 56.7619C404.173 56.7619 402.861 58.0752 400.893 58.0752C385.805 62.0149 317.582 81.7138 267.07 100.756C220.494 118.485 164.735 144.094 130.623 161.166C105.039 174.298 91.2632 182.178 85.3592 186.118C82.7352 188.088 79.4553 190.058 78.7993 190.714C78.1433 192.027 76.8313 193.997 75.5193 193.997C73.5513 193.997 73.5513 195.311 72.8953 195.311C72.2393 195.311 70.9273 196.624 70.2713 197.28C70.2713 199.25 70.2713 199.907 70.9273 200.564ZM283.47 169.702C281.502 168.389 282.158 167.076 284.782 165.762C301.182 158.539 342.509 144.094 366.125 136.871C386.461 130.304 442.221 112.575 457.309 107.979C461.245 106.666 462.556 106.666 463.868 108.636C467.804 113.232 472.396 119.142 475.676 126.365C478.956 133.587 482.236 143.437 483.548 149.347C484.204 153.943 482.236 154.6 479.612 155.913C462.556 163.792 419.917 182.178 402.205 190.714C385.149 198.594 353.661 214.353 342.509 219.606C337.917 221.576 338.573 222.889 335.949 219.606C335.293 218.293 333.325 216.323 333.325 215.666C332.669 215.009 326.765 209.756 326.109 209.1C325.454 208.443 322.174 204.503 321.518 203.847C320.862 203.19 317.582 199.25 316.926 198.594C316.27 197.937 314.302 197.28 313.646 196.624L305.118 188.088C305.118 188.088 303.806 186.118 302.494 185.461C301.182 184.804 299.87 183.491 299.214 182.835C298.558 182.178 295.278 177.582 293.31 176.925C291.342 175.612 287.406 172.985 286.75 172.329C286.75 171.672 285.438 171.015 283.47 169.702ZM151.615 362.094C155.551 359.468 164.735 354.871 166.047 354.215C168.015 352.901 168.671 353.558 168.671 353.558C168.671 355.528 168.671 360.124 171.295 360.781C171.951 360.781 173.919 360.124 174.575 360.781C175.231 362.094 175.887 362.094 175.887 362.094C175.887 362.751 177.199 362.094 177.855 362.751C178.511 363.407 177.855 364.064 178.511 364.721C179.167 365.377 180.479 364.064 181.135 364.064C182.447 364.064 182.447 365.377 182.447 366.691C181.791 368.004 183.103 369.317 185.071 367.347C186.383 366.034 186.382 366.691 187.694 366.034H189.662C190.318 366.691 190.974 367.347 191.63 367.347C192.286 368.004 193.598 367.347 194.254 367.347C194.91 368.004 194.91 369.317 196.222 369.317C196.878 369.317 197.534 368.004 198.19 368.661C199.502 369.974 196.878 371.944 198.846 372.6C199.502 372.6 200.158 371.944 200.814 371.944C201.47 371.944 202.126 370.63 202.782 370.63C203.438 370.63 204.094 371.287 204.75 370.63C205.406 369.974 206.062 369.974 206.718 369.317C207.374 368.661 208.686 369.317 209.342 368.661C209.998 368.004 209.342 366.691 211.31 367.347C213.278 368.004 211.31 369.317 211.966 369.974C212.622 370.63 214.59 369.974 214.59 369.974C215.902 369.317 216.558 368.004 217.214 367.347C217.87 366.034 219.182 362.751 219.838 361.438C220.494 360.124 222.462 356.841 223.118 355.528C223.774 354.215 227.71 348.305 227.71 347.648C227.71 346.992 229.022 345.678 229.678 345.022C230.334 344.365 230.99 342.395 231.646 340.425C232.302 338.456 234.926 335.172 234.926 334.516C234.926 333.859 236.894 329.263 237.55 327.95C238.206 326.636 240.83 323.353 240.83 322.04C241.486 320.727 242.798 317.443 242.798 317.443L244.766 314.817L246.078 312.19C246.734 310.221 249.358 306.937 250.014 305.624C250.67 304.311 252.638 301.684 252.638 301.684L253.95 298.401L255.262 295.775C255.262 295.775 255.918 293.148 256.574 291.835C257.23 291.178 258.542 289.208 259.198 287.895C259.854 286.582 261.166 282.642 261.822 281.329C262.478 280.016 265.758 274.106 265.758 273.449C265.758 272.136 269.038 266.226 269.694 264.913C269.694 263.6 270.35 262.287 270.35 260.973C271.006 260.317 272.318 258.347 272.318 257.69C272.318 257.034 274.942 251.781 274.942 251.124C275.598 250.467 275.598 249.154 276.254 249.154C276.91 249.154 277.566 249.811 278.222 251.124C278.878 251.781 280.19 251.781 280.846 252.437C281.502 253.094 284.126 255.72 284.126 256.377C284.126 257.034 285.438 257.034 286.094 257.69C286.094 258.347 286.75 259.004 287.406 259.66C288.062 259.66 290.03 261.63 290.686 262.287C291.342 262.943 291.342 264.257 291.998 264.913C292.654 265.57 295.278 266.883 295.278 267.54C295.278 268.196 299.214 272.793 299.87 273.449C300.526 274.106 300.526 275.419 301.182 276.076C301.838 276.732 303.15 277.389 303.15 278.046C303.15 278.702 303.15 280.672 303.806 281.329C303.806 281.986 305.774 282.642 305.774 283.299C305.774 283.955 306.43 285.925 307.086 286.582C307.742 286.582 307.742 287.239 308.398 287.895C308.398 288.552 309.054 290.522 309.054 291.178C309.054 291.835 310.366 293.805 311.022 294.461C311.678 295.118 312.334 296.431 312.99 297.088C312.99 297.745 312.99 299.715 313.646 300.371C313.646 301.028 314.958 302.998 314.958 302.998C314.958 303.654 315.614 304.968 315.614 304.968L316.27 306.937C316.27 306.937 317.582 308.907 317.582 309.564V311.534C317.582 312.19 318.894 313.504 318.894 314.16C318.894 314.817 320.206 317.443 320.206 317.443V320.07C320.206 320.727 321.518 322.04 321.518 322.697V324.666L322.173 325.323V328.606C322.173 329.263 323.486 331.233 323.486 331.233C322.83 331.889 276.91 352.901 257.23 362.094C229.022 375.227 170.639 404.775 164.079 408.058C157.519 411.341 153.583 413.968 152.271 412.655C148.991 410.685 143.087 406.088 139.151 394.926C135.871 385.733 135.871 378.51 135.871 374.57C135.871 371.944 135.871 369.317 140.463 366.691C139.807 369.317 147.679 364.721 151.615 362.094ZM108.975 304.311C108.975 304.311 87.3272 311.534 78.7993 314.817C70.9273 317.443 61.7434 320.727 55.8394 323.353C48.6235 326.636 35.5036 331.889 32.2236 332.546C27.6317 334.516 25.6637 333.203 24.3517 330.576C23.0397 327.95 19.7597 322.04 18.4477 314.817C16.4797 307.594 15.8237 301.684 15.8237 299.715C15.8237 297.745 17.7917 293.805 20.4157 292.492C23.0397 291.178 29.5996 287.239 34.1916 284.612C44.0315 279.359 76.8313 261.63 96.5111 251.124C117.503 239.961 150.303 224.202 168.015 215.666C185.727 207.13 214.59 193.341 218.526 191.371C221.806 190.058 225.742 188.088 227.71 188.088C229.678 188.088 229.022 188.744 229.022 189.401C229.022 190.058 228.366 190.058 228.366 191.371C228.366 192.684 228.366 193.997 227.71 195.311C227.054 196.624 226.398 197.937 225.742 198.594C225.742 199.25 225.086 202.533 224.43 203.847C223.774 205.16 220.494 211.07 219.838 213.696C219.182 216.323 217.87 220.919 217.214 222.232L213.934 228.799C213.934 230.112 212.622 233.395 211.966 234.708C211.31 236.022 208.686 240.618 208.686 241.931C208.03 242.588 206.718 248.497 206.062 249.811C205.406 250.467 204.094 253.094 204.094 253.094L203.438 257.034C203.438 257.034 200.814 260.317 200.814 260.973C200.814 261.63 198.846 267.54 198.19 268.853C197.534 270.166 192.942 279.359 192.286 282.642C191.63 285.925 189.662 290.522 189.662 291.835L186.383 298.401C185.727 299.715 183.759 306.281 183.103 307.594C182.447 308.907 180.479 312.847 180.479 314.16C180.479 315.474 179.167 318.1 177.855 320.727C176.543 323.353 175.231 327.293 174.575 328.606C173.919 329.919 173.263 331.233 172.607 331.889C172.607 332.546 171.951 335.172 171.951 335.829C171.951 336.486 171.295 337.799 171.295 337.799C169.983 338.456 111.599 363.407 103.071 367.347C94.5432 371.287 34.8476 399.522 30.9116 401.492C26.9757 403.462 22.3837 406.745 18.4477 404.775C13.8558 401.492 9.26379 394.926 5.98381 389.016C3.35983 383.763 0.735848 375.883 0.0798532 369.974C-0.576142 362.094 2.70383 360.781 13.8558 354.871C19.1037 351.588 62.3994 329.263 76.1753 322.04C80.7673 318.757 108.975 304.311 108.975 304.311Z" fill="white"/>
<path d="M256.574 87.6234C254.606 87.6234 252.638 87.6234 251.982 86.9668C251.982 86.3102 251.982 86.3102 251.326 85.6536C250.67 84.9969 250.014 84.9969 249.358 85.6536C248.702 85.6536 249.358 85.6536 248.702 86.3102C248.046 86.3102 245.422 85.6536 244.11 85.6536C243.454 86.3102 240.83 86.3102 240.174 85.6536C239.518 84.9969 239.518 83.6837 238.206 83.027C237.55 83.027 235.582 81.7138 234.926 80.4005C234.27 79.0873 232.302 77.774 232.302 76.4608C231.646 75.8041 231.646 74.4909 230.99 73.8342C230.99 73.1776 230.334 71.8644 229.678 71.2077L228.366 69.8945C227.71 69.2378 227.71 67.9246 227.054 67.268C227.054 66.6113 226.398 65.9547 226.398 65.9547C226.398 65.2981 226.398 64.6414 225.742 63.9848C225.742 63.3282 224.43 62.6716 224.43 62.0149C224.43 61.3583 223.774 57.4185 223.774 54.792C223.774 51.5089 223.774 49.539 224.43 48.2257C224.43 46.9125 225.086 45.5992 225.742 44.9426C225.742 43.6293 227.71 39.6896 227.71 37.7197C228.366 35.7498 229.022 32.4666 229.678 31.1534C230.334 29.8401 231.646 26.557 232.302 25.2437C232.958 23.9305 235.582 20.6473 236.238 19.3341C236.894 18.0208 241.486 13.4244 242.798 12.7678C244.11 12.1112 246.078 10.1413 247.39 9.48464C248.046 8.82801 251.326 6.85812 251.982 6.20149C252.638 5.54486 253.95 5.54486 253.95 5.54486L256.574 2.91835C257.23 2.26172 258.542 2.26172 258.542 2.26172C258.542 2.26172 259.854 0.948464 261.822 1.60509C262.478 1.60509 263.134 0.291835 263.79 0.291835C264.446 0.291835 267.07 -0.364794 267.07 0.291835C267.726 0.948464 267.726 0.948464 269.038 1.60509H272.318C272.974 1.60509 273.63 2.91835 274.286 2.91835C274.942 2.91835 280.846 8.82801 281.502 10.1413C281.502 10.7979 282.158 11.4545 282.158 12.1112C282.158 12.7678 283.47 13.4244 283.47 14.7377C283.47 16.0509 284.782 16.0509 285.438 18.0208C285.438 19.3341 287.406 19.9907 288.062 21.9606C288.062 22.6172 288.718 24.5871 288.718 24.5871C288.718 25.2437 289.374 25.2437 289.374 25.9004C289.374 26.557 290.03 27.8702 290.03 28.5269C290.03 29.1835 291.342 33.1233 291.342 35.0932C291.342 37.063 290.686 39.6896 290.03 41.0028C289.374 42.3161 290.03 45.5992 289.374 46.9125C289.374 48.2257 288.062 50.8522 288.062 52.1655C288.062 52.8221 285.438 59.3884 284.782 60.045C284.126 60.7017 282.814 63.3282 282.158 64.6414C281.502 65.2981 276.254 72.521 275.598 73.1776C274.942 73.8342 272.318 75.8041 272.318 76.4608C271.662 77.1174 271.006 78.4306 270.35 79.7439C269.038 81.0572 267.726 80.4005 267.07 81.0572C266.414 82.3704 264.446 83.027 263.79 83.6837C263.134 84.9969 262.478 86.3102 261.822 86.9668C260.51 86.9668 257.886 87.6234 256.574 87.6234ZM345.789 230.112C343.821 228.142 346.445 228.142 348.413 227.485C355.629 224.859 398.269 211.07 435.661 201.22C473.052 191.371 526.844 180.208 534.716 178.895C537.996 178.238 539.308 178.895 541.276 181.521C543.244 184.804 547.18 195.311 549.148 203.847C551.116 215.009 549.148 225.515 548.492 228.142C547.836 230.112 544.556 230.769 537.34 232.738C532.748 234.052 514.372 239.961 506.5 241.931C496.5 245.5 479.528 253.094 471 256.377C461.5 260.973 443.5 268.853 443.5 268.853L384 297.088C384 297.088 366.125 257.034 365.469 257.034C364.813 256.377 363.501 254.407 362.845 253.751C362.189 253.094 361.533 250.467 361.533 250.467C361.533 250.467 360.877 247.841 360.221 247.184C359.565 246.528 358.253 243.244 357.597 242.588C356.941 241.931 355.629 239.961 354.973 239.305C354.317 238.648 353.661 237.335 353.005 236.678C351.693 236.022 350.381 234.052 349.725 233.395C348.413 232.738 347.757 231.425 345.789 230.112Z" fill="white"/>
</g>
<defs>
<clipPath id="clip0_2_26">
<rect width="550" height="413" fill="white"/>
</clipPath>
</defs>
</svg>
