<svg width="2690" height="686" viewBox="0 0 2690 686" fill="none" xmlns="http://www.w3.org/2000/svg">
<path d="M533.7 405.7C533.7 264 418.8 149.2 277.1 149.2H148.8V20.8H20.5V149.1H148.8V277.4H277.1C348 277.4 405.4 334.8 405.4 405.7C405.4 476.6 347.9 534 277.1 534C206.3 534 148.8 476.6 148.8 405.7V277.4H20.5V405.7C20.5 547.4 135.4 662.2 277.1 662.2C418.8 662.3 533.7 547.4 533.7 405.7Z" fill="white"/>
<path d="M847.2 444.8C847.2 496.5 808.7 537.9 760 537.9C728.9 537.9 705.4 523.2 692.2 498.3V534.2H658.1V277.7H692.2V391.3C705.4 366.4 728.8 351.7 760 351.7C808.8 351.7 847.2 393.1 847.2 444.8ZM814.3 444.8C814.3 410.7 787.2 384 753.1 384C718.3 384 692.3 409.6 692.3 444.8C692.3 480 718.3 505.6 753.1 505.6C787.2 505.6 814.3 478.9 814.3 444.8Z" fill="white"/>
<path d="M1059.4 355.4V534.2H1025.7V497.6C1012.5 523.2 989.1 537.9 957.6 537.9C909.2 537.9 870.8 496.5 870.8 444.8C870.8 393.1 909.3 351.7 957.6 351.7C989.1 351.7 1012.6 366.4 1025.7 392V355.4H1059.4ZM1025.7 444.8C1025.7 409.6 999.7 384 964.5 384C930.4 384 903.3 410.7 903.3 444.8C903.3 478.9 930.4 505.6 964.5 505.6C999.7 505.6 1025.7 480 1025.7 444.8Z" fill="white"/>
<path d="M1281 445.2C1281 497.6 1240.3 537.9 1188.7 537.9C1136.7 537.9 1096.4 497.6 1096.4 445.2C1096.4 392.4 1136.7 351.8 1188.7 351.8C1240.4 351.7 1281 392.4 1281 445.2ZM1129.4 445.2C1129.4 479.3 1155 505.6 1188.7 505.6C1222 505.6 1248.1 479.2 1248.1 445.2C1248.1 410.4 1222.1 384 1188.7 384C1155 384 1129.4 410.4 1129.4 445.2Z" fill="white"/>
<path d="M1360.9 512.2L1374.8 486.9C1388.7 500.5 1414.4 509.6 1434.9 509.6C1455.8 509.6 1469.7 499 1469.7 485.4C1469.7 445.5 1366.4 472.2 1366.4 406.3C1366.4 373.7 1393.9 351.7 1434.2 351.7C1458.4 351.7 1483.7 359.4 1499 374.4L1484.3 400C1471.1 387.2 1446.9 380.2 1430.8 380.2C1412.1 380.2 1400 389.4 1400 403.3C1400 439.6 1503.7 416.5 1503.7 484.3C1503.7 515.1 1475.9 537.8 1435.2 537.8C1407.4 537.9 1378.1 527.6 1360.9 512.2Z" fill="white"/>
<path d="M1696.4 355.4L1594.2 599.4H1558L1589.5 528L1517.3 355.4H1553.6L1606.7 488.8L1660.2 355.4H1696.4Z" fill="white"/>
<path d="M1707.4 512.2L1721.3 486.9C1735.2 500.5 1760.9 509.6 1781.4 509.6C1802.3 509.6 1816.2 499 1816.2 485.4C1816.2 445.5 1712.9 472.2 1712.9 406.3C1712.9 373.7 1740.4 351.7 1780.7 351.7C1804.9 351.7 1830.2 359.4 1845.5 374.4L1830.8 400C1817.6 387.2 1793.4 380.2 1777.3 380.2C1758.6 380.2 1746.5 389.4 1746.5 403.3C1746.5 439.6 1850.2 416.5 1850.2 484.3C1850.2 515.1 1822.4 537.8 1781.7 537.8C1754 537.9 1724.6 527.6 1707.4 512.2Z" fill="white"/>
<path d="M1982.6 532.7C1977.5 534.9 1970.1 536.4 1963.2 536.4C1925.5 536.4 1898.7 512.2 1898.7 469.7V387.6H1863.9V355.4H1898.7V307H1932.4V355.4H1980.8V387.6H1932.4V468.2C1932.4 491.3 1947.8 504.8 1967.6 504.8C1971.6 504.8 1977.1 504.1 1980.8 503L1982.6 532.7Z" fill="white"/>
<path d="M2172.7 451H2029.8C2033.1 485.4 2056.5 507.4 2089.5 507.4C2112.2 507.4 2132.4 497.1 2141.5 481L2168.6 498.6C2155 522.8 2125 537.8 2088.4 537.8C2037.5 537.8 1996.8 497.5 1996.8 444C1996.8 392.3 2036.7 351.7 2088 351.7C2136 351.7 2173.4 389.1 2173.4 437.1C2173.4 441.1 2173.1 446.6 2172.7 451ZM2138.6 425.4C2136.4 398.7 2114.8 380 2086.6 380C2058.4 380 2037.5 398 2031.3 425.4H2138.6Z" fill="white"/>
<path d="M2491.4 426.1V534.2H2457.7V433.1C2457.7 402.7 2440.8 384 2413.4 384C2391.1 384 2368 398.3 2368 433.1V534.2H2334.3V433.1C2334.3 402.7 2317.4 384 2289.6 384C2268 384 2244.9 397.6 2244.9 433.1V534.2H2210.8V355.4H2244.9V383.2C2257.7 359.8 2280.8 351.7 2300.9 351.7C2329.1 351.7 2348.9 363.1 2359.5 386.9C2369.8 364.9 2393.2 351.7 2418.5 351.7C2462.5 351.7 2491.4 380.3 2491.4 426.1Z" fill="white"/>
<path d="M2526.6 512.2L2540.5 486.9C2554.4 500.5 2580.1 509.6 2600.6 509.6C2621.5 509.6 2635.4 499 2635.4 485.4C2635.4 445.5 2532.1 472.2 2532.1 406.3C2532.1 373.7 2559.6 351.7 2599.9 351.7C2624.1 351.7 2649.4 359.4 2664.7 374.4L2650 400C2636.8 387.2 2612.6 380.2 2596.5 380.2C2577.8 380.2 2565.7 389.4 2565.7 403.3C2565.7 439.6 2669.4 416.5 2669.4 484.3C2669.4 515.1 2641.6 537.8 2600.9 537.8C2573.1 537.9 2543.8 527.6 2526.6 512.2Z" fill="white"/>
</svg>
